<?xml version="1.0" encoding="utf-8"?>
<!-- Generator: Adobe Illustrator 16.0.0, SVG Export Plug-In . SVG Version: 6.00 Build 0)  -->
<!DOCTYPE svg PUBLIC "-//W3C//DTD SVG 1.1//EN" "http://www.w3.org/Graphics/SVG/1.1/DTD/svg11.dtd">
<svg version="1.1" id="Layer_1" xmlns="http://www.w3.org/2000/svg" xmlns:xlink="http://www.w3.org/1999/xlink" x="0px" y="0px"
	 width="489.945px" height="133.479px" viewBox="244.973 58.845 489.945 133.479"
	 enable-background="new 244.973 58.845 489.945 133.479" xml:space="preserve">
<g>
	<path fill="#212121" d="M285.748,118.869c-13.275-11.021-17.332-17.679-17.332-26.606c0-8.752,3.688-12.073,10.141-12.073
		c6.457,0,10.142,3.321,10.142,12.073v12.385h19.172V93.488c0-19.601-10.142-30.809-29.866-30.809
		c-19.732,0-29.874,11.208-29.874,30.809c0,14.006,5.347,24.159,22.314,38.337c13.275,11.035,17.329,17.682,17.329,26.617
		c0,8.74-4.053,11.9-10.503,11.9c-6.457,0-10.514-3.16-10.514-11.9v-8.756h-19.177v7.526c0,19.604,10.324,30.805,30.238,30.805
		c19.911,0,30.239-11.208,30.239-30.805C308.059,143.204,302.708,133.055,285.748,118.869z"/>
	<path fill="#212121" d="M355.663,131.042v27.4c0,8.74-4.058,12.071-10.511,12.071c-6.457,0-10.511-3.331-10.511-12.071V92.262
		c0-8.752,4.054-12.073,10.511-12.073c6.453,0,10.511,3.321,10.511,12.073v2.448c3.014-1.509,6.438-2.381,10.078-2.381
		c3.682,0,7.157,0.887,10.202,2.433v-1.274c0-19.601-10.876-30.809-30.791-30.809c-19.914,0-30.79,11.208-30.79,30.809v63.725
		c0,19.604,10.879,30.805,30.79,30.805c19.915,0,30.791-11.208,30.791-30.805v-26.23c-3.044,1.551-6.52,2.437-10.202,2.437
		C362.102,133.419,358.673,132.548,355.663,131.042z"/>
	<path fill="#212121" d="M411.099,62.68c-19.907,0-30.238,11.208-30.238,30.809v4.721c4.02,3.726,6.524,8.92,6.524,14.668
		c0,5.742-2.504,10.932-6.524,14.671v29.665c0,19.604,10.332,30.805,30.238,30.805c19.918,0,30.243-11.208,30.243-30.805v-38.863
		h-34.326v17.505h15.153v22.587c0,8.748-4.061,11.9-10.511,11.9c-6.456,0-10.511-3.152-10.511-11.9V92.262
		c0-8.752,4.055-12.073,10.511-12.073c6.45,0,10.511,3.321,10.511,12.073v13.13h19.177V93.488
		C441.346,73.887,431.018,62.68,411.099,62.68z"/>
	<path fill="#212121" d="M647.686,158.472c0,8.822-4.141,12.005-10.73,12.005H626.25l-0.025-107.753H605.52v125.569
		c0,0,10.545,0,30.871,0c20.334,0,30.873-11.288,30.873-31.058V62.7h-19.578V158.472z"/>
	<path fill="#212121" d="M710.32,118.891c-13.096-11.05-17.105-17.719-17.105-26.665c0-8.775,3.64-12.109,10.008-12.109
		c6.367,0,10.004,3.334,10.004,12.109v11.621h18.907V93.455c0-19.652-9.999-30.88-29.455-30.88
		c-19.464,0-29.464,11.228-29.464,30.88c0,14.031,5.269,24.214,22.002,38.421c13.091,11.052,17.104,17.721,17.104,26.678
		c0,8.771-4.005,11.931-10.373,11.931c-6.371,0-10.366-3.16-10.366-11.931v-8.778H672.67v7.541c0,19.658,10.18,30.888,29.818,30.888
		c19.646,0,29.836-11.229,29.836-30.888C732.328,143.286,727.057,133.107,710.32,118.891z"/>
	<g>
		<path fill="#212121" d="M561.809,62.771v18.818c11.647-2.595,15.101-11.045,19.031-18.818h0.004H561.809z"/>
		<polygon fill="#212121" points="561.809,135.409 561.809,135.409 539.703,62.771 509.371,62.771 509.371,188.324 528.791,188.324 
			528.791,101.853 528.791,101.853 559.768,188.324 581.221,188.324 581.221,95.783 561.809,95.783 		"/>
	</g>
	<path fill="#B32126" d="M381.26,106.582c-1.122-2.426-2.858-4.531-5.019-6.148c-2.873-2.146-6.483-3.435-10.422-3.435
		c-3.878,0-7.437,1.259-10.29,3.349c-3.983,2.924-6.569,7.504-6.569,12.664c0,5.161,2.586,9.735,6.569,12.665
		c2.853,2.087,6.412,3.348,10.29,3.348c3.938,0,7.552-1.297,10.422-3.441c2.161-1.617,3.896-3.719,5.019-6.144
		c0.916-1.967,1.422-4.139,1.422-6.434C382.687,110.724,382.176,108.552,381.26,106.582z M363.297,106.279
		c-2.739,2.374-3.975,5.429-4.792,8.745c-0.171,0.697-0.779,1.305-1.185,1.953c-0.48-0.638-1.33-1.26-1.371-1.931
		c-0.123-1.87,0.108-3.763,0.224-6.296c1.817-1.449,3.715-3.07,5.771-4.497c0.428-0.298,1.43,0.13,2.168,0.235
		C363.853,105.087,363.756,105.869,363.297,106.279z"/>
	<path fill="#212121" d="M447.311,188.293V62.577h55.619v19.052h-36.081v34.281h26.36v19.044h-26.36v34.292h36.081v19.047H447.311
		L447.311,188.293z"/>
</g>
</svg>
