<?xml version="1.0" encoding="utf-8"?>
<!-- Generator: Adobe Illustrator 16.0.0, SVG Export Plug-In . SVG Version: 6.00 Build 0)  -->
<!DOCTYPE svg PUBLIC "-//W3C//DTD SVG 1.1//EN" "http://www.w3.org/Graphics/SVG/1.1/DTD/svg11.dtd">
<svg version="1.1" id="Layer_1" xmlns="http://www.w3.org/2000/svg" xmlns:xlink="http://www.w3.org/1999/xlink" x="0px" y="0px"
	 width="423.473px" height="409.134px" viewBox="0 0 423.473 409.134" enable-background="new 0 0 423.473 409.134"
	 xml:space="preserve">
<g>
	<path fill="#111111" d="M370.179,173.008c-10.948-5.242-21.453-10.268-32.484-15.544c-0.848,1.101-2.182,2.636-3.292,4.318
		c-55.889,84.206-125.959,153.052-216.887,198.94c-23.252,11.738-47.656,20.203-74.57,16.697
		c-16.146-2.09-29.903-13.576-32.014-29.514c-1.329-10.051-1.051-20.748,0.843-30.727c5.828-30.707,20.964-57.557,36.984-83.939
		c1.924-3.172,2.327-7.262,3.434-10.93c-1.425-0.523-2.844-1.051-4.268-1.586c-6.728,11.688-13.97,23.121-20.096,35.123
		c-15.57,30.514-28.287,61.916-27.424,97.16c0.723,29.402,17.985,48.938,46.934,54.463c24.571,4.697,47.394-1.605,69.792-9.746
		c64.842-23.598,117.717-64.99,166.129-112.939C317.1,251.261,346.482,214.37,370.179,173.008z M238.393,319.3
		c-2.01,1.979-5.16,2.777-7.788,4.121c-0.808-1.031-1.625-2.061-2.443-3.102c4.828-4.232,10.223-7.969,14.395-12.777
		c21.867-25.193,43.464-50.637,65.079-76.07c3.556-4.182,6.304-11.895,12.828-5.768c1.979,1.859,0.363,11.051-2.535,14.041
		C291.816,266.653,265.091,292.966,238.393,319.3z"/>
	<path fill="#111111" d="M155.732,317.239c1.884,1.656,7.228,1.736,9.459,0.283c8.718-5.729,16.833-12.375,26.162-19.414
		c-39.399-32.879-72.979-69.111-102.61-109.04C63.85,155.528,41.997,120.181,33.814,78.717
		c-5.853-29.651,1.071-59.556,41.833-59.479c3.338,0.01,6.687-3.293,10.025-5.055c-0.571-1.137-1.142-2.278-1.717-3.415
		c-4.435-0.803-8.843-1.969-13.318-2.354C40.264,5.763,8.355,16.348,1.502,54.374c-3.833,21.272,0.086,42.055,7.06,61.817
		C37.39,197.861,91.98,261.007,155.732,317.239z M20.542,126.776c4.08,7.818,7.257,16.298,12.408,23.329
		c16.935,23.12,34.582,45.72,51.99,68.497c1.495,1.961,3.252,3.727,4.884,5.586c3.475,3.961,6.813,8.727,0.333,11.92
		c-2.354,1.15-8.606-1.313-10.363-3.939c-17.763-26.566-35.157-53.384-52.182-80.428c-4.45-7.065-7.268-15.151-10.839-22.762
		C18.032,128.241,19.285,127.509,20.542,126.776z"/>
	<path fill="#B31F24" d="M204.009,253.271c29.98-0.395,53.536-25.627,54.898-56.515c1.183-26.863-21.696-57.342-54.816-57.767
		c-28.465-0.369-58.05,26.121-54.803,57.141C145.838,230.28,179.09,253.583,204.009,253.271z M171.252,162.211
		c1.354-2.092,6.444-1.768,9.818-2.551c-0.086,3.208,0.883,6.945-0.424,9.541c-7.763,15.399-7.798,31.434-5.541,47.953
		c0.474,3.48-1.122,7.258-1.762,10.895c-3.203-2.143-7.97-3.576-9.309-6.566c-3.763-8.379-6.111-17.394-10.01-29.161
		C159.414,182.68,164.823,172.114,171.252,162.211z"/>
	<path fill="#111111" d="M356.603,221.704c-1.475,0.385-2.939,0.789-4.403,1.172c1.413,4.121,2.143,8.688,4.364,12.303
		c17.11,27.717,31.615,56.303,37.414,88.949c5.929,33.494-13.294,56.109-47.03,54.1c-26.11-1.557-49.333-11.615-72.06-23.273
		c-10.19-5.221-20.586-16.17-29.948-15.221c-10.213,1.031-19.354,12.818-28.92,19.969c-0.494,0.365-0.616,1.213-0.989,2
		c36.14,22.404,73.475,41.779,116.532,46.768c30.071,3.475,62.637-6.223,69.525-40.08c3.021-14.869,2.253-31.273-0.364-46.363
		C394.311,285.179,376.402,252.896,356.603,221.704z"/>
	<path fill="#B31F24" d="M377.432,62.636c-24.849,0.152-46.97,23.085-46.533,48.282c0.433,25.242,21.462,47.878,46.028,47.394
		c25.232-0.506,45.898-18.329,46.545-47.51C423.613,84.474,402.603,62.49,377.432,62.636z M351.078,134.362
		c-9.747-5.232-12.635-14.268-12.979-24.565c-0.516-15.252,5.555-25.167,17.879-29.686
		C354.342,98.171,352.775,115.539,351.078,134.362z"/>
	<path fill="#B31F24" d="M121.667,62.595c18.268,0.107,30.934-12.666,30.929-31.195c0-18.409-12.752-31.46-30.671-31.399
		C103.889,0.066,91.783,12.889,91.92,31.788C92.052,50.09,104.025,62.495,121.667,62.595z M96.996,25.045
		c1.626-5.192,5.576-9.662,8.48-14.459c0.843,0.677,1.687,1.363,2.53,2.046c-0.995,11.247-1.984,22.494-3.081,34.863
		C95.975,41.723,94.289,33.687,96.996,25.045z"/>
	<path fill="#111111" d="M229.171,55.414c25.172-14.625,50.817-27.878,79.584-34.389c31.646-7.156,49.202,0.283,63.143,27.323
		c10.181,1.743,19.736,3.374,30.15,5.157c-5.222-34.414-32.485-47.115-63.191-45.354c-46.03,2.637-85.837,23.268-123.18,49.52
		C220.606,58.242,225.353,57.625,229.171,55.414z"/>
	<path fill="#111111" d="M166.979,50.545c54.485,32.292,100.516,74.509,142.575,121.423c1.574-0.617,3.151-1.233,4.727-1.845
		c-1.789-3.691-2.728-8.252-5.486-10.949c-23.929-23.343-47.13-47.626-72.685-69.081c-22.475-18.873-47.707-34.469-71.722-51.509
		c-1.141,1.192-2.288,2.384-3.434,3.576C162.935,45.01,164.272,48.934,166.979,50.545z"/>
	<path fill="#111111" d="M187.934,78.545c-3.167,0.959-7.187,0.995-9.363,3.015c-28.616,26.551-57.066,53.287-85.211,80.333
		c-2.162,2.075-1.773,6.808-2.824,11.414c33.688-31.904,65.525-62.055,97.363-92.207C187.914,80.247,187.918,79.393,187.934,78.545z
		"/>
</g>
</svg>
