<?xml version="1.0" encoding="utf-8"?>
<!-- Generator: Adobe Illustrator 16.0.0, SVG Export Plug-In . SVG Version: 6.00 Build 0)  -->
<!DOCTYPE svg PUBLIC "-//W3C//DTD SVG 1.1//EN" "http://www.w3.org/Graphics/SVG/1.1/DTD/svg11.dtd">
<svg version="1.1" id="Layer_1" xmlns="http://www.w3.org/2000/svg" xmlns:xlink="http://www.w3.org/1999/xlink" x="0px" y="0px"
	 width="979.891px" height="256.501px" viewBox="0 0 979.891 256.501" enable-background="new 0 0 979.891 256.501"
	 xml:space="preserve">
<g>
	<path fill="#111111" d="M77.871,114.867c-27.086-22.5-35.36-36.071-35.36-54.285c0-17.859,7.524-24.646,20.688-24.646
		c13.169,0,20.693,6.786,20.693,24.646v25.258h39.121V63.08c0-40-20.691-62.859-60.94-62.859C21.818,0.22,1.126,23.08,1.126,63.08
		c0,28.574,10.911,49.287,45.523,78.217c27.08,22.502,35.359,36.074,35.359,54.289c0,17.855-8.279,24.285-21.443,24.285
		c-13.166,0-21.443-6.43-21.443-24.285v-17.859H0v15.359c0,40.002,21.068,62.857,61.696,62.857
		c40.625,0,61.697-22.855,61.697-62.857C123.393,164.511,112.482,143.796,77.871,114.867z"/>
	<path fill="#111111" d="M217.693,139.695v55.891c0,17.855-8.274,24.643-21.443,24.643c-13.168,0-21.443-6.787-21.443-24.643V60.582
		c0-17.859,8.275-24.646,21.443-24.646c13.169,0,21.443,6.786,21.443,24.646v4.986c6.147-3.086,13.141-4.854,20.564-4.854
		c7.522,0,14.609,1.805,20.814,4.969V63.08c0-40-22.193-62.859-62.822-62.859S133.426,23.08,133.426,63.08v130.006
		c0,40.002,22.194,62.857,62.823,62.857s62.822-22.855,62.822-62.857v-53.504c-6.205,3.166-13.292,4.967-20.814,4.967
		C230.833,144.548,223.84,142.783,217.693,139.695z"/>
	<path fill="#111111" d="M330.804,0.22c-40.626,0-61.693,22.859-61.693,62.859v9.622c8.194,7.613,13.3,18.212,13.3,29.931
		c0,11.72-5.105,22.316-13.3,29.932v60.521c0,40.002,21.067,62.857,61.693,62.857c40.629,0,61.695-22.855,61.695-62.857v-79.29
		h-70.036v35.714h30.914v46.076c0,17.855-8.28,24.285-21.443,24.285c-13.169,0-21.442-6.43-21.442-24.285V60.582
		c0-17.859,8.273-24.646,21.442-24.646c13.163,0,21.443,6.786,21.443,24.646v26.785H392.5V63.08
		C392.5,23.08,371.433,0.22,330.804,0.22z"/>
	<polygon fill="#111111" points="477.173,1 404,1 404,256 477.173,256 519,256 519,220.042 519,198 477,198 477,219 446,219 
		446,145 508,145 508,108 446,108 446,37 477,37 477,59 519,59 519,37.734 519,1 	"/>
	<path fill="#111111" d="M798.749,195.664c0,18-8.451,24.479-21.887,24.479l-21.853,0.004l-0.04-218.873h-42.248v255.229
		c0,0,21.51,0,62.982,0c41.481,0,62.986-23.039,62.986-63.357V1.273h-39.941V195.664z"/>
	<path fill="#111111" d="M934.996,114.914c-26.723-22.553-34.889-36.154-34.889-54.412c0-17.902,7.426-24.703,20.415-24.703
		c12.982,0,20.409,6.801,20.409,24.703v23.705h38.591V63.007C979.522,22.912,959.116,0,919.403,0
		c-39.702,0-60.108,22.912-60.108,63.008c0,28.638,10.759,49.401,44.896,78.4c26.72,22.553,34.889,36.154,34.889,54.414
		c0,17.898-8.169,24.344-21.158,24.344c-12.99,0-21.148-6.445-21.148-24.344v-17.9h-38.592v15.396
		c0,40.092,20.778,63.002,60.853,63.002c40.082,0,60.857-22.91,60.857-63.002C979.891,164.677,969.133,143.912,934.996,114.914z"/>
	<g>
		<path fill="#111111" d="M624,1V37.63c19-5.123,30-20.718,38-34.83V1H624z"/>
		<polygon fill="#111111" points="624,154 623.923,154 581.292,1 528,1 528,256 566,256 566,71 567.081,71 618.93,256 662,256 
			662,67 624,67 		"/>
	</g>
	<path fill="#B31F24" d="M271.869,89.787c-2.291-4.945-5.832-9.238-10.248-12.537c-5.853-4.377-13.221-7.008-21.249-7.008
		c-7.913,0-15.181,2.564-20.995,6.827c-8.143,5.974-13.41,15.313-13.41,25.839c0,10.525,5.268,19.862,13.41,25.836
		c5.814,4.264,13.082,6.826,20.995,6.826c8.028,0,15.396-2.629,21.249-7.006c4.416-3.299,7.957-7.592,10.248-12.537
		c1.857-4.018,2.909-8.449,2.909-13.119C274.778,98.237,273.726,93.805,271.869,89.787z M235.212,89.166
		c-5.592,4.844-8.107,11.086-9.768,17.854c-0.351,1.428-1.592,2.662-2.426,3.984c-0.979-1.311-2.709-2.578-2.791-3.938
		c-0.238-3.823,0.208-7.684,0.449-12.847c3.717-2.955,7.59-6.27,11.772-9.172c0.884-0.613,2.922,0.27,4.431,0.465
		C236.341,86.747,236.151,88.345,235.212,89.166z"/>
</g>
</svg>
