<?xml version="1.0" encoding="utf-8"?>
<!-- Generator: Adobe Illustrator 16.0.0, SVG Export Plug-In . SVG Version: 6.00 Build 0)  -->
<!DOCTYPE svg PUBLIC "-//W3C//DTD SVG 1.1//EN" "http://www.w3.org/Graphics/SVG/1.1/DTD/svg11.dtd">
<svg version="1.1" id="Layer_1" xmlns="http://www.w3.org/2000/svg" xmlns:xlink="http://www.w3.org/1999/xlink" x="0px" y="0px"
	 width="979.891px" height="256.5px" viewBox="0 0 979.891 256.5" enable-background="new 0 0 979.891 256.5" xml:space="preserve">
<g>
	<path fill="#212121" d="M83.418,116.289C56.87,94.249,48.756,80.933,48.756,63.079c0-17.503,7.376-24.145,20.282-24.145
		c12.913,0,20.282,6.642,20.282,24.145v24.768h38.343V65.531c0-39.2-20.282-61.614-59.728-61.614
		c-39.461,0-59.744,22.414-59.744,61.614c0,28.009,10.693,48.314,44.625,76.67c26.549,22.068,34.655,35.361,34.655,53.23
		c0,17.48-8.106,23.799-21.005,23.799c-12.913,0-21.027-6.318-21.027-23.799v-17.51H7.088v15.051
		c0,39.207,20.647,61.605,60.473,61.605c39.819,0,60.475-22.414,60.475-61.605C128.036,164.956,117.335,144.66,83.418,116.289z"/>
	<path fill="#212121" d="M223.24,140.635v54.797c0,17.48-8.114,24.142-21.021,24.142c-12.912,0-21.02-6.661-21.02-24.142V63.079
		c0-17.503,8.108-24.145,21.02-24.145c12.906,0,21.021,6.642,21.021,24.145v4.896c6.028-3.018,12.876-4.761,20.156-4.761
		c7.362,0,14.313,1.773,20.401,4.866v-2.548c0-39.2-21.75-61.614-61.578-61.614c-39.826,0-61.576,22.414-61.576,61.614v127.442
		c0,39.207,21.757,61.605,61.576,61.605c39.827,0,61.578-22.414,61.578-61.605v-52.457c-6.088,3.101-13.039,4.873-20.401,4.873
		C236.116,145.389,229.26,143.646,223.24,140.635z"/>
	<path fill="#212121" d="M334.105,3.917c-39.811,0-60.473,22.414-60.473,61.614v9.441c8.04,7.451,13.046,17.838,13.046,29.334
		c0,11.483-5.007,21.863-13.046,29.34v59.326c0,39.207,20.662,61.605,60.473,61.605c39.834,0,60.482-22.414,60.482-61.605v-77.72
		H325.94v35.009h30.304v45.17c0,17.495-8.122,23.799-21.02,23.799c-12.912,0-21.02-6.304-21.02-23.799V63.079
		c0-17.503,8.108-24.145,21.02-24.145c12.898,0,21.02,6.642,21.02,24.145v26.258h38.351V65.531
		C394.595,26.331,373.939,3.917,334.105,3.917z"/>
	<path fill="#212121" d="M807.249,195.491c0,17.645-8.279,24.008-21.459,24.008h-21.408L764.329,4.007h-41.406V255.13
		c0,0,21.088,0,61.739,0c40.663,0,61.742-22.575,61.742-62.112V3.958h-39.155V195.491z"/>
	<path fill="#212121" d="M932.51,116.333c-26.188-22.1-34.208-35.437-34.208-53.328c0-17.548,7.279-24.216,20.014-24.216
		s20.008,6.668,20.008,24.216v23.24h37.813V65.465c0-39.302-19.996-61.756-58.907-61.756c-38.925,0-58.924,22.454-58.924,61.756
		c0,28.06,10.536,48.425,44,76.838c26.182,22.102,34.208,35.438,34.208,53.352c0,17.541-8.01,23.86-20.745,23.86
		c-12.741,0-20.729-6.319-20.729-23.86v-17.556h-37.822v15.082c0,39.313,20.356,61.771,59.633,61.771
		c39.291,0,59.669-22.458,59.669-61.771C976.524,165.121,965.98,144.763,932.51,116.333z"/>
	<g>
		<path fill="#212121" d="M635.506,4.1v37.633c23.293-5.19,30.199-22.089,38.06-37.633h0.01H635.506z"/>
		<polygon fill="#212121" points="635.506,149.368 635.506,149.368 591.298,4.1 530.637,4.1 530.637,255.19 569.474,255.19 
			569.474,82.26 569.474,82.26 631.424,255.19 674.328,255.19 674.328,70.121 635.506,70.121 		"/>
	</g>
	<path fill="#B32126" d="M274.43,91.716c-2.244-4.852-5.715-9.061-10.036-12.296c-5.746-4.291-12.965-6.869-20.842-6.869
		c-7.756,0-14.874,2.518-20.579,6.698c-7.966,5.849-13.137,15.007-13.137,25.327c0,10.321,5.171,19.47,13.137,25.328
		c5.706,4.175,12.823,6.695,20.579,6.695c7.876,0,15.103-2.594,20.842-6.883c4.321-3.233,7.792-7.437,10.036-12.287
		c1.833-3.934,2.845-8.278,2.845-12.868C277.283,100,276.262,95.656,274.43,91.716z M238.507,91.111
		c-5.477,4.747-7.95,10.856-9.582,17.488c-0.342,1.394-1.559,2.608-2.37,3.905c-0.96-1.275-2.659-2.519-2.741-3.861
		c-0.247-3.74,0.216-7.525,0.447-12.592c3.635-2.898,7.429-6.139,11.542-8.994c0.857-0.596,2.86,0.26,4.336,0.47
		C239.618,88.727,239.424,90.292,238.507,91.111z"/>
	<path fill="#212121" d="M406.523,255.13V3.712h111.231v38.102h-72.158v68.558h52.717v38.087h-52.717v68.58h72.158v38.091H406.523
		L406.523,255.13z"/>
</g>
</svg>
