<?xml version="1.0" encoding="utf-8"?>
<!-- Generator: Adobe Illustrator 16.0.0, SVG Export Plug-In . SVG Version: 6.00 Build 0)  -->
<!DOCTYPE svg PUBLIC "-//W3C//DTD SVG 1.1//EN" "http://www.w3.org/Graphics/SVG/1.1/DTD/svg11.dtd">
<svg version="1.1" id="Layer_1" xmlns="http://www.w3.org/2000/svg" xmlns:xlink="http://www.w3.org/1999/xlink" x="0px" y="0px"
	 width="120px" height="29.787px" viewBox="0 0 120 29.787" enable-background="new 0 0 120 29.787" xml:space="preserve">
<g>
	<path fill="#F4F4F4" d="M9.698,13.269c-1.031-0.796-2.055-1.631-2.911-2.616c-0.57-0.656-1.059-1.397-1.302-2.239
		c-0.244-0.843-0.281-1.824-0.042-2.67C5.558,5.341,5.759,4.96,6.076,4.681c0.306-0.268,0.693-0.419,1.091-0.489
		c0.777-0.138,1.735-0.089,2.39,0.403c0.732,0.55,0.891,1.534,0.891,2.393v2.924h4.871V7.277c0-1.859-0.436-3.799-1.738-5.192
		c-1.323-1.416-3.267-1.967-5.152-2.065c-1.986-0.104-4.15,0.173-5.791,1.388C1.162,2.5,0.417,4.221,0.21,6.009
		c-0.221,1.923,0.049,3.885,1.026,5.574c1.105,1.912,2.85,3.41,4.573,4.748c1.031,0.796,2.054,1.632,2.91,2.619
		c0.572,0.654,1.059,1.397,1.303,2.236c0.243,0.842,0.287,1.824,0.027,2.664c-0.125,0.403-0.344,0.775-0.672,1.045
		c-0.321,0.263-0.72,0.405-1.125,0.473c-0.792,0.133-1.754,0.086-2.434-0.388c-0.757-0.53-0.947-1.498-0.947-2.367v-2.065H0v1.775
		c0,1.856,0.444,3.788,1.749,5.175c1.33,1.417,3.276,1.971,5.163,2.081c2.001,0.113,4.187-0.149,5.86-1.343
		c1.49-1.061,2.278-2.748,2.509-4.532c0.248-1.908-0.003-3.887-0.952-5.584C13.229,16.161,11.449,14.631,9.698,13.269
		C6.325,10.667,14.008,16.618,9.698,13.269z"/>
	<path fill="#F4F4F4" d="M41.195,0.001c-5.06,0-7.684,2.646-7.684,7.275V8.39c0.957,0.826,1.595,2,1.652,3.271
		c0.057,1.275-0.475,2.5-1.371,3.397c-0.09,0.089-0.185,0.176-0.282,0.263v7.002c0,1.855,0.445,3.787,1.748,5.175
		c1.329,1.417,3.278,1.972,5.164,2.078c2.002,0.116,4.186-0.146,5.86-1.339c1.49-1.062,2.278-2.748,2.509-4.532
		c0.061-0.459,0.085-0.92,0.085-1.382v-9.176h-8.72v4.134h3.848v5.332c0,0.919-0.22,1.936-1.066,2.442
		c-0.368,0.221-0.797,0.318-1.222,0.352c-0.465,0.04-0.947,0.016-1.398-0.105c-0.494-0.137-0.935-0.417-1.216-0.854
		c-0.349-0.536-0.436-1.205-0.436-1.835V6.987c0-0.927,0.222-1.953,1.065-2.473c0.367-0.226,0.798-0.33,1.224-0.366
		c0.464-0.038,0.948-0.016,1.397,0.113c0.499,0.142,0.936,0.433,1.216,0.873c0.349,0.545,0.437,1.218,0.437,1.852v3.1h4.873V7.276
		C48.876,2.647,46.255,0.001,41.195,0.001z"/>
	<polygon fill="#F4F4F4" points="59.043,0.339 50.161,0.339 50.161,29.292 59.043,29.292 64.19,29.292 64.19,25.133 64.19,22.726 
		59.067,22.726 59.067,25.095 55.286,25.095 55.286,16.7 62.848,16.7 62.848,12.501 55.286,12.501 55.286,4.428 59.067,4.428 
		59.067,6.904 64.19,6.904 64.19,4.465 64.19,0.339 	"/>
	<path fill="#F4F4F4" d="M97.902,22.37c0,2.038-1.027,2.776-2.668,2.776h-2.666L92.564,0.332H87.41v28.895
		c1.063,0.016,2.124,0.024,3.185,0.028c1.309,0.009,2.616,0.011,3.925,0.014c1.157,0,2.303-0.039,3.431-0.338
		c0.882-0.232,1.732-0.612,2.456-1.175c0.675-0.525,1.217-1.199,1.597-1.962c0.57-1.146,0.772-2.442,0.772-3.709V0.332h-4.874
		L97.902,22.37L97.902,22.37z"/>
	<path fill="#F4F4F4" d="M114.333,13.455c-1.028-0.792-2.05-1.627-2.904-2.607c-0.57-0.655-1.063-1.392-1.306-2.23
		c-0.243-0.84-0.284-1.814-0.056-2.66c0.114-0.406,0.31-0.791,0.625-1.076c0.302-0.271,0.687-0.426,1.082-0.5
		c0.777-0.145,1.74-0.097,2.399,0.385c0.745,0.546,0.908,1.54,0.908,2.406V9.91h4.873V7.462c0-1.858-0.437-3.8-1.739-5.192
		c-1.325-1.416-3.269-1.966-5.152-2.064c-1.986-0.104-4.151,0.174-5.789,1.387c-1.476,1.093-2.222,2.814-2.429,4.601
		c-0.222,1.923,0.05,3.886,1.026,5.575c1.106,1.911,2.85,3.408,4.572,4.746c1.024,0.794,2.049,1.627,2.902,2.608
		c0.57,0.655,1.059,1.393,1.306,2.23c0.245,0.837,0.293,1.816,0.042,2.654c-0.121,0.406-0.337,0.783-0.664,1.055
		c-0.317,0.266-0.713,0.414-1.116,0.487c-0.792,0.141-1.757,0.095-2.44-0.371c-0.771-0.526-0.966-1.504-0.966-2.381v-2.066h-4.871
		v1.776c0,1.855,0.444,3.787,1.746,5.177c1.329,1.414,3.278,1.971,5.163,2.078c2.003,0.114,4.187-0.149,5.86-1.343
		c1.491-1.059,2.279-2.747,2.509-4.529c0.061-0.457,0.085-0.921,0.085-1.384C120,19.203,118.643,16.805,114.333,13.455
		C110.959,10.852,118.643,16.805,114.333,13.455z"/>
	<g>
		<path fill="#F4F4F4" d="M77,0.339v4.115c2.317-0.58,3.656-2.348,4.633-3.949V0.339H77z"/>
		<polygon fill="#F4F4F4" points="77,17.669 76.944,17.669 71.745,0.339 65.287,0.339 65.287,29.292 69.923,29.292 69.923,8.303 
			70.011,8.303 76.336,29.292 81.633,29.292 81.633,7.873 77,7.873 		"/>
	</g>
	<g>
		<path fill="#F4F4F4" d="M27.108,16.145v6.468c0,0.927-0.229,1.952-1.075,2.474c-0.37,0.226-0.8,0.327-1.229,0.363
			c-0.466,0.039-0.95,0.017-1.4-0.113c-0.498-0.143-0.939-0.433-1.222-0.875c-0.351-0.543-0.443-1.216-0.443-1.849V6.987
			c0-0.93,0.229-1.954,1.075-2.473c0.37-0.226,0.801-0.33,1.229-0.366c0.464-0.038,0.948-0.016,1.398,0.113
			c0.5,0.141,0.94,0.433,1.224,0.873c0.348,0.544,0.441,1.217,0.441,1.852v0.577c1.561-0.763,3.565-0.767,5.123,0.013V7.276
			C32.23,2.646,29.482,0,24.423,0c-5.059,0-7.806,2.646-7.806,7.275v15.045c0,1.868,0.477,3.799,1.806,5.176
			c1.357,1.409,3.323,1.971,5.229,2.081c2.018,0.112,4.211-0.161,5.907-1.343c1.511-1.053,2.34-2.736,2.583-4.532
			c0.061-0.459,0.089-0.919,0.089-1.382v-6.19C30.673,16.909,28.669,16.908,27.108,16.145z"/>
		<path fill="#141414" d="M33.511,10.367c-0.278-0.562-0.71-1.047-1.249-1.421c-1.511-1.049-3.635-1.056-5.153-0.02
			c-0.97,0.661-1.636,1.738-1.636,2.929c0,1.19,0.667,2.269,1.636,2.931c1.519,1.034,3.642,1.028,5.153-0.023
			c0.539-0.374,0.971-0.86,1.249-1.42C33.979,12.405,33.979,11.303,33.511,10.367C33.233,9.805,33.739,10.822,33.511,10.367z
			 M29.041,10.296c-0.682,0.548-0.989,1.257-1.191,2.024c-0.042,0.163-0.194,0.302-0.295,0.452c-0.12-0.15-0.331-0.292-0.341-0.446
			c-0.028-0.433,0.024-0.871,0.055-1.457c0.453-0.333,0.925-0.711,1.438-1.04c0.106-0.07,0.355,0.031,0.54,0.053
			C29.178,10.022,29.156,10.203,29.041,10.296C28.358,10.844,29.156,10.203,29.041,10.296z"/>
	</g>
</g>
</svg>
