<?xml version="1.0" encoding="utf-8"?>
<!-- Generator: Adobe Illustrator 16.0.0, SVG Export Plug-In . SVG Version: 6.00 Build 0)  -->
<!DOCTYPE svg PUBLIC "-//W3C//DTD SVG 1.1//EN" "http://www.w3.org/Graphics/SVG/1.1/DTD/svg11.dtd">
<svg version="1.1" id="Layer_1" xmlns="http://www.w3.org/2000/svg" xmlns:xlink="http://www.w3.org/1999/xlink" x="0px" y="0px"
	 width="151px" height="52px" viewBox="0 0 151 52" enable-background="new 0 0 151 52" xml:space="preserve">
<g>
	<path fill="#212121" d="M25.426,24.406c-3.216-2.67-4.199-4.284-4.199-6.447c0-2.121,0.894-2.925,2.458-2.925
		c1.564,0,2.457,0.805,2.457,2.925v3.001h4.646v-2.704c0-4.75-2.458-7.465-7.236-7.465c-4.781,0-7.239,2.715-7.239,7.465
		c0,3.394,1.296,5.854,5.407,9.289c3.217,2.674,4.199,4.285,4.199,6.449c0,2.119-0.982,2.884-2.544,2.884
		c-1.565,0-2.548-0.765-2.548-2.884v-2.121h-4.646v1.824c0,4.75,2.501,7.463,7.327,7.463c4.824,0,7.327-2.715,7.327-7.463
		C30.833,30.303,29.536,27.844,25.426,24.406z"/>
	<path fill="#212121" d="M42.367,27.355v6.639c0,2.119-0.983,2.926-2.547,2.926c-1.564,0-2.547-0.807-2.547-2.926V17.959
		c0-2.121,0.982-2.925,2.547-2.925c1.564,0,2.547,0.805,2.547,2.925v0.593c0.73-0.365,1.561-0.577,2.442-0.577
		c0.892,0,1.734,0.215,2.472,0.59v-0.309c0-4.75-2.635-7.465-7.461-7.465c-4.825,0-7.46,2.715-7.46,7.465v15.441
		c0,4.75,2.636,7.463,7.46,7.463c4.826,0,7.461-2.715,7.461-7.463v-6.355c-0.738,0.375-1.58,0.59-2.472,0.59
		C43.928,27.932,43.097,27.721,42.367,27.355z"/>
	<path fill="#212121" d="M55.8,10.791c-4.824,0-7.327,2.715-7.327,7.465V19.4c0.974,0.903,1.581,2.161,1.581,3.555
		c0,1.391-0.606,2.648-1.581,3.553v7.189c0,4.75,2.503,7.463,7.327,7.463c4.826,0,7.328-2.715,7.328-7.463V24.28H54.81v4.241h3.672
		v5.473c0,2.12-0.984,2.884-2.547,2.884c-1.564,0-2.547-0.764-2.547-2.884V17.959c0-2.121,0.982-2.925,2.547-2.925
		c1.563,0,2.547,0.805,2.547,2.925v3.181h4.647v-2.884C63.129,13.506,60.626,10.791,55.8,10.791z"/>
	<path fill="#212121" d="M113.126,34.002c0,2.137-1.004,2.909-2.601,2.909h-2.594l-0.006-26.109h-5.018v30.427c0,0,2.555,0,7.48,0
		c4.927,0,7.48-2.736,7.48-7.526V10.796h-4.743V34.002z"/>
	<path fill="#212121" d="M128.302,24.411c-3.173-2.677-4.145-4.293-4.145-6.461c0-2.126,0.882-2.934,2.425-2.934
		s2.425,0.808,2.425,2.934v2.815h4.58v-2.518c0-4.762-2.422-7.482-7.137-7.482c-4.716,0-7.139,2.721-7.139,7.482
		c0,3.4,1.275,5.867,5.331,9.31c3.171,2.678,4.144,4.294,4.144,6.464c0,2.126-0.97,2.891-2.513,2.891
		c-1.544,0-2.513-0.765-2.513-2.891v-2.127h-4.582v1.828c0,4.762,2.467,7.484,7.226,7.484c4.761,0,7.229-2.723,7.229-7.484
		C133.634,30.322,132.357,27.855,128.302,24.411z"/>
	<g>
		<path fill="#212121" d="M92.317,10.813v4.56c2.821-0.629,3.658-2.676,4.61-4.56h0.002H92.317z"/>
		<polygon fill="#212121" points="92.317,28.414 92.317,28.414 86.961,10.813 79.611,10.813 79.611,41.234 84.316,41.234 
			84.316,20.283 84.316,20.283 91.822,41.234 97.021,41.234 97.021,18.812 92.317,18.812 		"/>
	</g>
	<path fill="#B32126" d="M48.569,21.428c-0.272-0.587-0.692-1.098-1.216-1.49c-0.696-0.52-1.571-0.832-2.525-0.832
		c-0.939,0-1.802,0.305-2.493,0.812c-0.965,0.709-1.592,1.818-1.592,3.069c0,1.25,0.626,2.359,1.592,3.068
		c0.691,0.506,1.554,0.812,2.493,0.812c0.954,0,1.83-0.313,2.525-0.834c0.524-0.392,0.944-0.901,1.216-1.488
		c0.222-0.477,0.345-1.003,0.345-1.559C48.916,22.432,48.792,21.906,48.569,21.428z M44.217,21.355
		c-0.663,0.575-0.963,1.315-1.161,2.119c-0.042,0.169-0.188,0.316-0.288,0.473c-0.116-0.154-0.321-0.305-0.332-0.467
		c-0.029-0.454,0.027-0.913,0.055-1.526c0.44-0.351,0.9-0.744,1.398-1.089c0.104-0.072,0.347,0.031,0.525,0.057
		C44.352,21.066,44.328,21.256,44.217,21.355z"/>
	<path fill="#212121" d="M64.574,41.229V10.766h13.477v4.617h-8.743v8.306h6.388v4.614h-6.388v8.311h8.743v4.615H64.574
		L64.574,41.229z"/>
</g>
</svg>
