<?xml version="1.0" encoding="utf-8"?>
<!-- Generator: Adobe Illustrator 16.0.0, SVG Export Plug-In . SVG Version: 6.00 Build 0)  -->
<!DOCTYPE svg PUBLIC "-//W3C//DTD SVG 1.1//EN" "http://www.w3.org/Graphics/SVG/1.1/DTD/svg11.dtd">
<svg version="1.1" id="Layer_1" xmlns="http://www.w3.org/2000/svg" xmlns:xlink="http://www.w3.org/1999/xlink" x="0px" y="0px"
	 width="302px" height="84px" viewBox="0 0 302 84" enable-background="new 0 0 302 84" xml:space="preserve">
<g>
	<path fill="#212121" d="M49.976,39.312c-6.433-5.34-8.398-8.567-8.398-12.894c0-4.241,1.787-5.851,4.915-5.851
		c3.129,0,4.914,1.609,4.914,5.851v6.002h9.291v-5.408c0-9.499-4.915-14.93-14.473-14.93c-9.563,0-14.478,5.431-14.478,14.93
		c0,6.787,2.592,11.708,10.813,18.578c6.434,5.348,8.397,8.57,8.397,12.898c0,4.238-1.964,5.768-5.089,5.768
		c-3.13,0-5.096-1.529-5.096-5.768v-4.242h-9.293v3.648c0,9.5,5.003,14.926,14.653,14.926c9.648,0,14.654-5.43,14.654-14.926
		C60.789,51.105,58.196,46.188,49.976,39.312z"/>
	<path fill="#212121" d="M83.858,45.211v13.277c0,4.238-1.966,5.852-5.094,5.852c-3.129,0-5.094-1.613-5.094-5.852v-32.07
		c0-4.241,1.965-5.851,5.094-5.851c3.128,0,5.094,1.609,5.094,5.851v1.186c1.461-0.73,3.121-1.153,4.884-1.153
		c1.784,0,3.468,0.43,4.944,1.18v-0.618c0-9.499-5.271-14.93-14.922-14.93c-9.65,0-14.921,5.431-14.921,14.93v30.883
		c0,9.5,5.272,14.926,14.921,14.926c9.651,0,14.922-5.43,14.922-14.926V45.184c-1.477,0.75-3.16,1.18-4.944,1.18
		C86.979,46.363,85.317,45.941,83.858,45.211z"/>
	<path fill="#212121" d="M110.723,12.082c-9.647,0-14.654,5.431-14.654,14.93V29.3c1.948,1.806,3.161,4.322,3.161,7.109
		c0,2.781-1.213,5.297-3.161,7.106v14.379c0,9.5,5.007,14.926,14.654,14.926c9.652,0,14.655-5.43,14.655-14.926V39.061h-16.635
		v8.482h7.344v10.945c0,4.24-1.969,5.768-5.094,5.768c-3.129,0-5.094-1.527-5.094-5.768v-32.07c0-4.241,1.965-5.851,5.094-5.851
		c3.125,0,5.094,1.609,5.094,5.851v6.362h9.294v-5.769C125.381,17.513,120.375,12.082,110.723,12.082z"/>
	<path fill="#212121" d="M225.375,58.504c0,4.273-2.008,5.818-5.201,5.818h-5.188l-0.012-52.219h-10.035v60.854
		c0,0,5.109,0,14.961,0c9.854,0,14.961-5.473,14.961-15.053V12.092h-9.486V58.504z"/>
	<path fill="#212121" d="M255.727,39.322c-6.346-5.354-8.289-8.587-8.289-12.922c0-4.253,1.764-5.868,4.85-5.868
		s4.85,1.615,4.85,5.868v5.631h9.16v-5.035c0-9.523-4.844-14.965-14.273-14.965c-9.432,0-14.277,5.441-14.277,14.965
		c0,6.8,2.551,11.734,10.662,18.619c6.342,5.355,8.287,8.588,8.287,12.928c0,4.252-1.939,5.781-5.025,5.781
		c-3.088,0-5.025-1.529-5.025-5.781v-4.254h-9.164v3.656c0,9.523,4.934,14.969,14.451,14.969c9.521,0,14.459-5.445,14.459-14.969
		C266.391,51.145,263.838,46.211,255.727,39.322z"/>
	<g>
		<path fill="#212121" d="M183.758,12.126v9.119c5.643-1.258,7.316-5.353,9.221-9.119h0.004H183.758z"/>
		<polygon fill="#212121" points="183.758,47.328 183.758,47.328 173.045,12.126 158.346,12.126 158.346,72.969 167.756,72.969 
			167.756,31.065 167.756,31.065 182.768,72.969 193.164,72.969 193.164,28.124 183.758,28.124 		"/>
	</g>
	<path fill="#B32126" d="M96.262,33.356c-0.544-1.175-1.385-2.195-2.433-2.979c-1.392-1.039-3.142-1.664-5.05-1.664
		c-1.879,0-3.604,0.609-4.986,1.623c-1.931,1.418-3.184,3.636-3.184,6.138c0,2.501,1.253,4.718,3.184,6.136
		c1.383,1.012,3.107,1.623,4.986,1.623c1.908,0,3.66-0.627,5.05-1.668c1.048-0.783,1.889-1.802,2.433-2.977
		c0.444-0.953,0.689-2.007,0.689-3.118C96.955,35.364,96.707,34.312,96.262,33.356z M87.557,33.21
		c-1.326,1.15-1.926,2.631-2.321,4.238c-0.083,0.338-0.377,0.632-0.575,0.946c-0.232-0.309-0.643-0.61-0.664-0.935
		c-0.059-0.907,0.054-1.825,0.109-3.053c0.88-0.702,1.8-1.487,2.796-2.179c0.208-0.145,0.693,0.063,1.051,0.113
		C87.827,32.633,87.78,33.012,87.557,33.21z"/>
	<path fill="#212121" d="M128.272,72.957V12.032h26.953v9.233h-17.486v16.612h12.775v9.228h-12.775v16.621h17.486v9.23H128.272
		L128.272,72.957z"/>
</g>
</svg>
