<?xml version="1.0" standalone="no"?>
<!DOCTYPE svg PUBLIC "-//W3C//DTD SVG 20010904//EN"
 "http://www.w3.org/TR/2001/REC-SVG-20010904/DTD/svg10.dtd">
<svg version="1.0" xmlns="http://www.w3.org/2000/svg"
 width="260.000000pt" height="260.000000pt" viewBox="0 0 260.000000 260.000000"
 preserveAspectRatio="xMidYMid meet">
<metadata>
Created by potrace 1.11, written by Peter Selinger 2001-2013
</metadata>
<g transform="translate(0.000000,260.000000) scale(0.100000,-0.100000)"
fill="#000000" stroke="none">
<path d="M420 2585 c-182 -45 -324 -172 -389 -348 l-26 -72 0 -860 0 -860 24
-74 c51 -156 186 -291 342 -342 l74 -24 855 0 855 0 74 24 c156 51 291 186
342 342 l24 74 0 855 0 855 -24 74 c-50 152 -183 287 -337 342 l-69 24 -845 2
c-682 1 -856 -1 -900 -12z m1388 -1010 c77 -23 144 -82 182 -159 27 -54 33
-81 38 -155 7 -125 -19 -209 -88 -284 -72 -78 -129 -102 -250 -102 -84 0 -102
3 -152 28 -67 33 -111 80 -147 157 -23 49 -26 67 -26 165 0 118 15 169 71 242
80 105 233 149 372 108z m-898 -345 l0 -350 -80 0 -80 0 0 350 0 350 80 0 80
0 0 -350z"/>
<path d="M1619 1437 c-50 -34 -81 -97 -87 -177 -6 -94 11 -160 58 -212 37 -42
39 -43 103 -43 56 0 69 4 92 25 54 50 70 96 70 200 0 83 -3 101 -25 140 -33
58 -81 90 -135 90 -27 0 -54 -8 -76 -23z"/>
</g>
</svg>
