<?xml version="1.0" encoding="utf-8"?>
<!-- Generator: Adobe Illustrator 16.0.0, SVG Export Plug-In . SVG Version: 6.00 Build 0)  -->
<!DOCTYPE svg PUBLIC "-//W3C//DTD SVG 1.1//EN" "http://www.w3.org/Graphics/SVG/1.1/DTD/svg11.dtd">
<svg version="1.1" id="Layer_1" xmlns="http://www.w3.org/2000/svg" xmlns:xlink="http://www.w3.org/1999/xlink" x="0px" y="0px"
	 width="846.939px" height="818.263px" viewBox="0 0 846.939 818.263" enable-background="new 0 0 846.939 818.263"
	 xml:space="preserve">
<g>
	<path fill="#141414" d="M740.355,346.013c-21.896-10.485-42.906-20.536-64.97-31.089c-1.695,2.201-4.363,5.272-6.584,8.636
		C557.024,491.972,416.884,629.664,235.028,721.441c-46.504,23.477-95.313,40.406-149.14,33.395
		c-32.293-4.18-59.807-27.152-64.029-59.027c-2.658-20.102-2.103-41.496,1.687-61.453c11.655-61.414,41.928-115.114,73.969-167.88
		c3.848-6.344,4.654-14.523,6.868-21.859c-2.85-1.047-5.688-2.102-8.535-3.172c-13.455,23.375-27.941,46.242-40.193,70.246
		C24.516,572.719-0.918,635.523,0.808,706.012c1.445,58.805,35.97,97.875,93.868,108.926c49.142,9.395,94.788-3.211,139.585-19.492
		c129.685-47.195,235.434-129.98,332.258-225.879C634.196,502.519,692.963,428.737,740.355,346.013z M476.782,638.598
		c-4.02,3.957-10.32,5.555-15.576,8.242c-1.615-2.063-3.25-4.121-4.887-6.203c9.656-8.465,20.445-15.938,28.789-25.555
		c43.734-50.387,86.928-101.274,130.158-152.142c7.111-8.363,12.607-23.789,25.656-11.535c3.959,3.719,0.727,22.102-5.07,28.082
		C583.63,533.304,530.179,585.93,476.782,638.598z"/>
	<path fill="#141414" d="M311.461,634.477c3.769,3.313,14.456,3.473,18.919,0.566c17.436-11.457,33.667-24.75,52.324-38.828
		c-78.798-65.759-145.958-138.224-205.22-218.08C127.696,311.054,83.99,240.359,67.625,157.431
		C55.919,98.128,69.768,38.319,151.292,38.472c6.676,0.02,13.374-6.586,20.051-10.11c-1.143-2.273-2.284-4.557-3.435-6.829
		c-8.869-1.605-17.687-3.938-26.636-4.707C80.524,11.522,16.708,32.693,3,108.744c-7.667,42.545,0.172,84.11,14.12,123.635
		C74.777,395.719,183.958,522.011,311.461,634.477z M41.082,253.55c8.16,15.637,14.515,32.596,24.815,46.658
		c33.87,46.241,69.164,91.441,103.981,136.994c2.989,3.922,6.505,7.453,9.768,11.172c6.949,7.922,13.627,17.453,0.667,23.84
		c-4.708,2.301-17.213-2.625-20.727-7.879C124.06,411.202,89.272,357.568,55.222,303.479c-8.899-14.131-14.536-30.302-21.678-45.524
		C36.06,256.479,38.566,255.015,41.082,253.55z"/>
	<path fill="#141414" d="M408.016,506.538c59.96-0.789,107.071-51.254,109.796-113.03c2.365-53.726-43.393-114.685-109.633-115.534
		c-56.93-0.738-116.101,52.241-109.605,114.282C291.674,460.558,358.178,507.163,408.016,506.538z M342.502,324.419
		c2.707-4.184,12.888-3.536,19.637-5.103c-0.172,6.415,1.767,13.89-0.849,19.081c-15.525,30.798-15.597,62.869-11.081,95.906
		c0.948,6.961-2.243,14.516-3.524,21.789c-6.405-4.285-15.939-7.152-18.617-13.133c-7.525-16.758-12.222-34.788-20.021-58.321
		C318.825,365.357,329.644,344.226,342.502,324.419z"/>
	<path fill="#141414" d="M713.203,443.405c-2.949,0.77-5.879,1.578-8.807,2.344c2.826,8.242,4.285,17.375,8.729,24.605
		c34.221,55.434,63.23,112.606,74.828,177.899c11.857,66.988-26.588,112.219-94.061,108.199
		c-52.222-3.113-98.667-23.23-144.12-46.547c-20.381-10.441-41.172-32.34-59.896-30.441c-20.426,2.063-38.709,25.637-57.84,39.938
		c-0.988,0.73-1.232,2.426-1.979,4c72.279,44.809,146.949,83.559,233.064,93.535c60.144,6.949,125.274-12.445,139.052-80.16
		c6.043-29.738,4.506-62.547-0.729-92.727C788.619,570.355,752.803,505.788,713.203,443.405z"/>
	<path fill="#141414" d="M754.861,125.269c-49.697,0.304-93.94,46.171-93.067,96.564c0.865,50.483,42.925,95.756,92.058,94.788
		c50.465-1.012,91.797-36.657,93.09-95.021C847.225,168.945,805.203,124.977,754.861,125.269z M702.154,268.722
		c-19.494-10.465-25.271-28.535-25.96-49.131c-1.031-30.505,11.11-50.333,35.759-59.372
		C708.682,196.339,705.549,231.075,702.154,268.722z"/>
	<path fill="#141414" d="M243.331,125.187c36.535,0.214,61.868-25.332,61.858-62.391c0-36.818-25.505-62.92-61.343-62.798
		c-36.071,0.131-60.283,25.777-60.01,63.575C184.101,100.178,208.048,124.986,243.331,125.187z M193.988,50.088
		c3.252-10.385,11.151-19.323,16.96-28.919c1.686,1.354,3.373,2.727,5.06,4.092c-1.989,22.494-3.969,44.988-6.161,69.726
		C191.947,83.442,188.574,67.37,193.988,50.088z"/>
	<path fill="#141414" d="M458.339,110.824c50.344-29.251,101.635-55.756,159.168-68.777c63.294-14.313,98.405,0.566,126.286,54.646
		c20.361,3.485,39.473,6.748,60.301,10.314C793.65,38.179,739.123,12.776,677.71,16.3c-92.061,5.273-171.674,46.535-246.359,99.04
		C441.21,116.481,450.702,115.248,458.339,110.824z"/>
	<path fill="#141414" d="M333.956,101.088c108.971,64.584,201.031,149.018,285.15,242.847c3.148-1.234,6.303-2.467,9.453-3.689
		c-3.578-7.383-5.455-16.504-10.973-21.898c-47.857-46.686-94.26-95.252-145.369-138.161
		c-44.949-37.746-95.414-68.938-143.443-103.019c-2.282,2.385-4.575,4.768-6.868,7.151
		C325.866,90.017,328.542,97.864,333.956,101.088z"/>
	<path fill="#141414" d="M375.865,157.087c-6.334,1.918-14.373,1.989-18.727,6.03c-57.232,53.102-114.132,106.574-170.423,160.665
		c-4.323,4.15-3.546,13.615-5.647,22.829c67.375-63.808,131.05-124.111,194.726-184.414
		C375.825,160.491,375.834,158.783,375.865,157.087z"/>
</g>
</svg>
