<?xml version="1.0" encoding="utf-8"?>
<!-- Generator: Adobe Illustrator 16.0.0, SVG Export Plug-In . SVG Version: 6.00 Build 0)  -->
<!DOCTYPE svg PUBLIC "-//W3C//DTD SVG 1.1//EN" "http://www.w3.org/Graphics/SVG/1.1/DTD/svg11.dtd">
<svg version="1.1" id="Layer_1" xmlns="http://www.w3.org/2000/svg" xmlns:xlink="http://www.w3.org/1999/xlink" x="0px" y="0px"
	 width="402.49px" height="202.595px" viewBox="0 0 402.49 202.595" enable-background="new 0 0 402.49 202.595"
	 xml:space="preserve">
<g>
	<g>
		<circle fill="#4D4D4D" cx="99.889" cy="173.878" r="29.919"/>
		<circle fill="#4D4D4D" cx="147.717" cy="169.26" r="36.79"/>
		<circle fill="#4D4D4D" cx="260.825" cy="171.803" r="36.79"/>
		<circle fill="#4D4D4D" cx="307.041" cy="187.854" r="36.79"/>
		<circle fill="#4D4D4D" cx="203.333" cy="171.803" r="36.79"/>
	</g>
	<g>
		<g>
			<path fill="#CECCCB" d="M284.105,161.615l8.611,3.678c0,0,7.925-6.437,17.571-5.056c7.942,1.133,12.401,5.052,15.159,11.941
				l22.774,12.683l0.192,17.633l-112.08-3.674l-28.02-22.506l16.995-17.458L284.105,161.615z"/>
			<g>
				<path fill="#CECCCB" d="M208.208,150.013c0.71,1.846,1.472,3.719,2.281,5.604h0.016c0.222-0.013,0.444-0.024,0.669-0.033
					c0.251-0.007,0.503-0.014,0.755-0.008c0.32,0.003,0.641,0.017,0.956,0.037c0.105,0.005,0.211,0.019,0.315,0.027
					c0.211,0.017,0.42,0.032,0.626,0.059c0.126,0.016,0.252,0.037,0.374,0.052c0.186,0.027,0.37,0.052,0.555,0.083
					c0.132,0.022,0.26,0.05,0.393,0.075c0.174,0.032,0.347,0.066,0.518,0.104c0.134,0.03,0.268,0.066,0.401,0.098
					c0.164,0.041,0.329,0.08,0.492,0.127c0.136,0.039,0.268,0.08,0.403,0.119c0.158,0.049,0.314,0.097,0.474,0.151
					c0.133,0.044,0.265,0.092,0.397,0.14c0.152,0.057,0.306,0.11,0.457,0.168c0.132,0.053,0.263,0.105,0.395,0.164
					c0.148,0.063,0.293,0.121,0.438,0.188c0.132,0.06,0.262,0.121,0.392,0.181c0.141,0.071,0.282,0.138,0.422,0.209
					c0.127,0.068,0.254,0.133,0.381,0.201c0.139,0.076,0.275,0.155,0.411,0.231c0.123,0.071,0.244,0.144,0.367,0.218
					c0.135,0.084,0.267,0.166,0.4,0.254c0.118,0.076,0.236,0.152,0.352,0.23c0.132,0.086,0.263,0.182,0.389,0.273
					c0.114,0.082,0.228,0.162,0.339,0.245c0.13,0.099,0.253,0.199,0.378,0.296c0.107,0.086,0.216,0.171,0.32,0.258
					c0.126,0.105,0.251,0.215,0.373,0.323c0.098,0.085,0.199,0.175,0.297,0.265c0.126,0.115,0.247,0.232,0.369,0.35
					c0.091,0.091,0.183,0.178,0.27,0.266c0.126,0.13,0.25,0.263,0.372,0.396c0.063,0.066,0.129,0.131,0.189,0.201
					c0.02,0.017,0.034,0.037,0.052,0.056c0.09,0.101,0.179,0.208,0.27,0.313c0.094,0.11,0.188,0.222,0.281,0.332
					c0.086,0.105,0.165,0.215,0.248,0.32c0.094,0.117,0.184,0.234,0.272,0.355c0.08,0.107,0.157,0.218,0.231,0.325
					c0.086,0.122,0.173,0.245,0.256,0.369c0.074,0.111,0.146,0.225,0.218,0.339c0.082,0.126,0.161,0.254,0.241,0.383
					c0.067,0.113,0.133,0.23,0.199,0.343c0.076,0.133,0.151,0.266,0.223,0.401c0.035,0.063,0.067,0.126,0.102,0.191h64.98
					c0,0,0.055-2.842-1.771-5.423c-0.074-0.078-0.158-0.167-0.219-0.23c-0.051-0.054-0.098-0.106-0.152-0.16
					c-0.155-0.156-0.312-0.301-0.474-0.449c-0.021-0.017-0.04-0.039-0.062-0.058c-0.188-0.167-0.379-0.327-0.573-0.479
					c-0.039-0.036-0.082-0.063-0.122-0.096c-0.156-0.115-0.309-0.234-0.469-0.346c-0.069-0.053-0.143-0.098-0.215-0.146
					c-0.13-0.087-0.262-0.177-0.396-0.26c-0.084-0.053-0.169-0.102-0.256-0.154c-0.124-0.071-0.248-0.146-0.374-0.219
					c-0.093-0.05-0.187-0.098-0.28-0.148c-0.123-0.06-0.247-0.126-0.371-0.184c-0.098-0.048-0.198-0.092-0.298-0.139
					c-0.121-0.055-0.244-0.108-0.368-0.161c-0.104-0.041-0.207-0.082-0.309-0.123c-0.126-0.05-0.247-0.092-0.375-0.136
					c-0.105-0.039-0.211-0.075-0.319-0.111c-0.126-0.041-0.252-0.078-0.379-0.113c-0.107-0.031-0.215-0.064-0.326-0.091
					c-0.129-0.036-0.258-0.064-0.387-0.095c-0.146-0.024-0.28-0.055-0.409-0.089c-0.108-0.022-0.214-0.042-0.324-0.058
					c-0.106-0.021-0.208-0.039-0.314-0.055c-0.146-0.022-0.294-0.035-0.444-0.055c-0.098-0.012-0.19-0.023-0.284-0.032
					c-0.19-0.019-0.383-0.028-0.576-0.038c-0.054-0.001-0.107-0.006-0.162-0.008c-0.243-0.009-0.49-0.009-0.734-0.006
					c-0.27,0.008-0.534,0.021-0.802,0.043c-1.376,0.117-2.755,0.453-4.098,1.03c-0.432,0.188-0.847,0.396-1.251,0.62
					c0.427-1.666,0.338-3.479-0.397-5.182c-0.099-0.232-0.213-0.459-0.333-0.678c-0.038-0.069-0.08-0.134-0.117-0.203
					c-0.091-0.146-0.179-0.297-0.275-0.438c-0.05-0.075-0.099-0.144-0.15-0.215c-0.098-0.135-0.198-0.266-0.304-0.392
					c-0.053-0.063-0.104-0.13-0.157-0.192c-0.134-0.15-0.27-0.293-0.41-0.433c-0.031-0.028-0.057-0.058-0.085-0.085
					c-0.171-0.164-0.35-0.316-0.534-0.465c-0.057-0.046-0.117-0.087-0.174-0.131c-0.133-0.101-0.267-0.197-0.405-0.286
					c-0.071-0.048-0.145-0.094-0.217-0.138c-0.134-0.086-0.27-0.164-0.411-0.237c-0.07-0.039-0.141-0.078-0.211-0.114
					c-0.182-0.09-0.364-0.174-0.551-0.25c-0.03-0.01-0.062-0.027-0.091-0.039c-0.218-0.088-0.437-0.162-0.662-0.227
					c-0.068-0.021-0.139-0.039-0.21-0.058c-0.16-0.042-0.319-0.08-0.481-0.114c-0.082-0.019-0.165-0.034-0.246-0.046
					c-0.161-0.027-0.322-0.051-0.487-0.071c-0.075-0.006-0.147-0.014-0.226-0.022c-0.22-0.019-0.441-0.028-0.665-0.028
					c-0.016,0-0.032,0-0.047,0c-0.239,0-0.478,0.015-0.717,0.039c-0.072,0.006-0.146,0.019-0.218,0.028
					c-0.168,0.021-0.338,0.048-0.509,0.08c-0.083,0.014-0.166,0.03-0.247,0.052c-0.168,0.035-0.333,0.081-0.502,0.129
					c-0.074,0.021-0.147,0.043-0.223,0.064c-0.237,0.078-0.471,0.164-0.705,0.264c-0.023,0.011-0.043,0.021-0.067,0.033
					c-0.169,0.072-0.334,0.151-0.493,0.236c-0.057,0.031-0.11,0.061-0.165,0.09c-0.124,0.072-0.248,0.144-0.368,0.219
					c-0.052,0.033-0.105,0.064-0.16,0.1c-0.129,0.087-0.254,0.174-0.376,0.266c-0.035,0.029-0.071,0.051-0.108,0.078
					c-0.153,0.121-0.299,0.242-0.443,0.368c-0.04,0.038-0.077,0.075-0.116,0.112c-0.106,0.101-0.213,0.203-0.315,0.309
					c-0.045,0.049-0.087,0.096-0.131,0.143c-0.098,0.105-0.188,0.213-0.283,0.325c-0.032,0.041-0.067,0.083-0.101,0.124
					c-0.122,0.155-0.238,0.311-0.348,0.472c-0.01,0.016-0.019,0.034-0.031,0.05c-0.097,0.146-0.188,0.296-0.276,0.449
					c-0.027,0.048-0.054,0.096-0.081,0.146c-0.07,0.126-0.137,0.257-0.197,0.389c-0.022,0.047-0.048,0.097-0.07,0.146
					c-0.08,0.173-0.153,0.347-0.221,0.525c-0.001,0.004-0.001,0.007-0.002,0.009c-0.068,0.187-0.13,0.371-0.186,0.562
					c-0.012,0.048-0.023,0.094-0.037,0.142c-0.038,0.145-0.076,0.292-0.107,0.438c-0.018,0.099-0.04,0.197-0.058,0.292
					c-3.672-2.919-8.79-3.779-13.402-1.792c-0.904,0.392-1.739,0.875-2.505,1.429l-1.563-0.215c-0.208-0.717-0.458-1.43-0.759-2.133
					c-0.115-0.263-0.233-0.52-0.358-0.773c-0.039-0.08-0.08-0.156-0.117-0.234c-0.089-0.176-0.18-0.35-0.271-0.52
					c-0.048-0.09-0.099-0.174-0.146-0.262c-0.093-0.16-0.186-0.32-0.285-0.48c-0.049-0.082-0.098-0.166-0.149-0.246
					c-0.109-0.17-0.219-0.336-0.331-0.505c-0.043-0.062-0.083-0.124-0.127-0.186c-0.158-0.229-0.321-0.453-0.487-0.671
					c-0.014-0.016-0.028-0.032-0.042-0.051c-0.152-0.199-0.311-0.394-0.473-0.582c-0.054-0.068-0.11-0.13-0.164-0.193
					c-0.108-0.122-0.214-0.241-0.323-0.359c-0.271-0.296-0.548-0.585-0.836-0.859c-0.053-0.049-0.11-0.1-0.165-0.15
					c-0.262-0.244-0.528-0.479-0.804-0.706c-0.057-0.046-0.112-0.095-0.169-0.142c-0.306-0.246-0.623-0.484-0.945-0.711
					c-0.073-0.053-0.149-0.103-0.225-0.155c-0.319-0.216-0.642-0.424-0.972-0.62c-0.019-0.012-0.037-0.025-0.058-0.037
					c-0.345-0.201-0.697-0.39-1.055-0.568c-0.082-0.039-0.164-0.08-0.247-0.119c-0.356-0.172-0.715-0.336-1.083-0.485
					c-0.051-0.019-0.103-0.039-0.155-0.058c-0.337-0.133-0.678-0.256-1.022-0.369c-0.074-0.022-0.149-0.05-0.223-0.072
					c-0.379-0.117-0.758-0.221-1.141-0.314c-0.079-0.021-0.157-0.037-0.234-0.055c-0.365-0.084-0.731-0.156-1.101-0.217
					c-0.043-0.008-0.082-0.017-0.122-0.023c-0.396-0.063-0.796-0.109-1.199-0.145c-0.088-0.009-0.175-0.015-0.263-0.02
					c-0.404-0.029-0.812-0.053-1.218-0.054c-0.028,0-0.058,0-0.086,0c-0.39,0-0.777,0.013-1.169,0.039
					c-0.081,0.003-0.165,0.009-0.247,0.015c-0.405,0.033-0.808,0.077-1.212,0.133c-0.073,0.011-0.145,0.024-0.217,0.035
					c-0.372,0.061-0.742,0.129-1.112,0.213c-0.061,0.015-0.122,0.023-0.183,0.039c-0.401,0.094-0.802,0.204-1.203,0.328
					c-0.087,0.025-0.174,0.055-0.262,0.084c-0.408,0.133-0.816,0.273-1.218,0.438c-3.645-6.47-6.899-42.398-8.689-54.178
					l-9.944,1.51C199.097,91.057,201.238,131.876,208.208,150.013z"/>
				<path fill="#FFFFFF" d="M227.635,165.102c-0.071-0.136-0.146-0.269-0.223-0.401c-0.066-0.112-0.132-0.229-0.199-0.343
					c-0.08-0.129-0.159-0.257-0.241-0.383c-0.071-0.114-0.144-0.228-0.218-0.339c-0.083-0.124-0.17-0.247-0.256-0.369
					c-0.074-0.107-0.151-0.218-0.231-0.325c-0.089-0.121-0.179-0.238-0.272-0.355c-0.083-0.105-0.162-0.215-0.248-0.32
					c-0.094-0.11-0.188-0.222-0.281-0.332c-0.091-0.105-0.18-0.213-0.27-0.313c-0.081-0.089-0.16-0.172-0.241-0.257
					c-0.122-0.133-0.246-0.266-0.372-0.396c-0.087-0.088-0.179-0.175-0.27-0.266c-0.122-0.117-0.243-0.234-0.369-0.35
					c-0.098-0.09-0.199-0.18-0.297-0.265c-0.122-0.108-0.247-0.218-0.373-0.323c-0.104-0.087-0.213-0.172-0.32-0.258
					c-0.125-0.097-0.248-0.197-0.378-0.296c-0.111-0.083-0.225-0.163-0.339-0.245c-0.126-0.092-0.256-0.184-0.389-0.273
					c-0.115-0.078-0.233-0.154-0.352-0.23c-0.134-0.088-0.266-0.17-0.4-0.254c-0.123-0.074-0.244-0.146-0.367-0.218
					c-0.136-0.076-0.272-0.155-0.411-0.231c-0.127-0.068-0.254-0.133-0.381-0.201c-0.14-0.071-0.282-0.138-0.422-0.209
					c-0.13-0.06-0.26-0.121-0.392-0.181c-0.146-0.067-0.29-0.126-0.438-0.188c-0.132-0.059-0.263-0.111-0.395-0.164
					c-0.151-0.058-0.305-0.111-0.457-0.168c-0.133-0.048-0.265-0.096-0.397-0.14c-0.159-0.055-0.315-0.103-0.474-0.151
					c-0.136-0.039-0.268-0.08-0.403-0.119c-0.163-0.047-0.328-0.086-0.492-0.127c-0.134-0.031-0.268-0.067-0.401-0.098
					c-0.171-0.038-0.344-0.072-0.518-0.104c-0.133-0.025-0.261-0.053-0.393-0.075c-0.185-0.03-0.369-0.056-0.555-0.083
					c-0.122-0.015-0.248-0.036-0.374-0.052c-0.206-0.026-0.415-0.042-0.626-0.059c-0.104-0.009-0.21-0.022-0.315-0.027
					c-0.315-0.021-0.636-0.034-0.956-0.037c-0.252-0.006-0.504,0.001-0.755,0.008c-0.225,0.009-0.447,0.021-0.669,0.033h-0.016
					c-0.81-1.885-1.571-3.758-2.281-5.604c-6.97-18.137-7.097-60.384-7.362-62.478l8.972-0.296l-17.464,0.576
					c0,0-4.369,40.634-9.373,54.467c-0.997,2.759-2.097,5.507-3.307,8.134c-4.949-4.371-12.497-4.426-17.512,0.105
					c-1.187,1.07-2.131,2.309-2.834,3.645c-4.66-2.208-10.389-1.548-14.456,2.125c-0.199,0.177-0.388,0.363-0.574,0.551
					c-0.343-0.958-0.872-1.863-1.596-2.666c-2.978-3.297-8.065-3.558-11.363-0.58c-1.728,1.561-2.613,3.699-2.644,5.858
					c-4.58-1.974-10.085-1.247-14.028,2.313c-1.151,1.038-2.074,2.235-2.769,3.526h115.84
					C227.702,165.228,227.67,165.165,227.635,165.102z"/>
			</g>
			<path fill="#CECCCB" d="M167.693,155.231c-0.167-0.054-0.329-0.125-0.497-0.17c-0.169-0.042-0.329-0.092-0.5-0.113l-0.25-0.043
				l-0.252-0.017c-0.168-0.019-0.335-0.003-0.501-0.003c-0.166,0.003-0.331,0.031-0.493,0.053c-0.16,0.039-0.323,0.056-0.477,0.111
				c-0.156,0.049-0.31,0.096-0.457,0.162c-0.151,0.053-0.292,0.137-0.433,0.208c-0.142,0.069-0.27,0.167-0.403,0.252
				c-0.121,0.104-0.252,0.188-0.362,0.302c-0.113,0.108-0.23,0.211-0.327,0.333c-0.05,0.062-0.105,0.114-0.151,0.177l-0.135,0.189
				c-0.097,0.123-0.16,0.264-0.24,0.395l-0.029,0.051l-0.001,0.002c0.004-0.008-0.011,0.024,0.009-0.017v0.001l-0.003,0.008
				l-0.007,0.016l-0.014,0.03l-0.054,0.119c-0.033,0.076-0.083,0.165-0.098,0.228c-0.045,0.135-0.094,0.266-0.13,0.416
				c-0.047,0.146-0.063,0.296-0.093,0.444l-0.186,0.886l-0.775-0.545c-0.16-0.115-0.313-0.234-0.474-0.341l-0.249-0.148
				l-0.125-0.077l-0.03-0.018l-0.003-0.004c-0.025-0.012,0.03,0.019,0.024,0.016l-0.002-0.002l-0.009-0.006l-0.019-0.008
				l-0.073-0.034l-0.292-0.14l-0.145-0.068l-0.129-0.045c-0.172-0.061-0.332-0.133-0.526-0.174l-0.278-0.074
				c-0.093-0.023-0.19-0.03-0.283-0.049c-0.095-0.014-0.189-0.035-0.285-0.046l-0.286-0.021c-0.191-0.025-0.383-0.007-0.574-0.007
				c-0.192,0-0.381,0.034-0.573,0.048c-0.188,0.032-0.377,0.07-0.564,0.109c-0.182,0.061-0.373,0.1-0.549,0.172
				c-0.178,0.072-0.362,0.131-0.53,0.225l-0.259,0.129c-0.083,0.046-0.164,0.098-0.247,0.15c-0.167,0.095-0.322,0.209-0.476,0.326
				c-0.162,0.107-0.293,0.249-0.441,0.375c-0.146,0.129-0.266,0.281-0.403,0.418c-0.126,0.148-0.238,0.309-0.359,0.464l-0.331,0.415
				l-0.425-0.229c-0.123-0.064-0.242-0.141-0.371-0.2c-0.124-0.065-0.258-0.11-0.389-0.165c-0.135-0.041-0.27-0.092-0.41-0.123
				c-0.137-0.037-0.279-0.055-0.421-0.076c-0.143-0.01-0.286-0.031-0.43-0.029c-0.146-0.008-0.291,0.006-0.435,0.01
				c-0.145,0.018-0.291,0.026-0.434,0.059c-0.146,0.021-0.285,0.068-0.429,0.102c-0.139,0.053-0.283,0.096-0.416,0.16
				c-0.141,0.052-0.272,0.125-0.407,0.194c-0.066,0.032-0.129,0.077-0.194,0.112l-0.121,0.036l-0.038-0.019v0.002
				c0.006-0.008-0.015,0.014,0.013-0.014l-0.002,0.004l0.017,0.031l-0.012,0.031l-0.041,0.045l-0.378,0.304
				c-0.121,0.097-0.211,0.211-0.323,0.32c-0.052,0.051-0.11,0.104-0.159,0.165l-0.137,0.19c-0.087,0.129-0.204,0.245-0.271,0.392
				l-0.236,0.421c0.041-0.157,0.083-0.313,0.127-0.471c0.036-0.163,0.119-0.306,0.184-0.459l0.104-0.229
				c0.039-0.071,0.089-0.142,0.135-0.216c0.094-0.139,0.185-0.297,0.291-0.422l0.326-0.358l0.04-0.046l0.022-0.021l0.005-0.006
				l-0.027-0.033l-0.009-0.047l0.012-0.01l0.124-0.053c0.065-0.055,0.142-0.101,0.21-0.152c0.136-0.104,0.282-0.203,0.432-0.289
				c0.145-0.096,0.306-0.163,0.462-0.243c0.161-0.066,0.324-0.138,0.491-0.188c0.167-0.061,0.34-0.092,0.512-0.139
				c0.173-0.027,0.349-0.066,0.526-0.076c0.178-0.018,0.355-0.014,0.534-0.016c0.178,0.012,0.357,0.018,0.534,0.048
				c0.179,0.021,0.354,0.066,0.53,0.103c0.173,0.051,0.347,0.097,0.516,0.163c0.172,0.06,0.334,0.144,0.499,0.222l-0.757,0.191
				c0.132-0.197,0.256-0.399,0.396-0.588c0.153-0.18,0.291-0.377,0.459-0.542c0.172-0.163,0.33-0.344,0.519-0.489
				c0.183-0.149,0.366-0.303,0.57-0.427c0.1-0.064,0.199-0.133,0.3-0.194l0.316-0.166c0.207-0.121,0.431-0.205,0.651-0.299
				c0.219-0.096,0.453-0.145,0.681-0.219c0.231-0.055,0.465-0.103,0.701-0.146c0.237-0.023,0.474-0.064,0.712-0.063
				c0.24,0.001,0.479-0.013,0.716,0.019l0.358,0.031c0.119,0.013,0.235,0.037,0.353,0.059c0.117,0.023,0.235,0.045,0.351,0.075
				l0.343,0.101c0.228,0.057,0.461,0.16,0.692,0.252l0.172,0.074l0.143,0.077l0.284,0.151l0.072,0.039l0.062,0.033l0.037,0.027
				l0.148,0.096l0.296,0.199c0.191,0.139,0.366,0.301,0.549,0.448l-0.961,0.341c0.05-0.192,0.088-0.385,0.159-0.568
				c0.057-0.184,0.141-0.377,0.231-0.564c0.044-0.105,0.087-0.16,0.131-0.243l0.066-0.112l0.043-0.076l0.043-0.062
				c0.115-0.158,0.213-0.327,0.348-0.467l0.19-0.22c0.065-0.071,0.139-0.138,0.208-0.204c0.136-0.138,0.289-0.255,0.444-0.369
				c0.151-0.121,0.325-0.208,0.486-0.31c0.174-0.08,0.34-0.172,0.519-0.238c0.178-0.066,0.354-0.135,0.539-0.176
				c0.09-0.022,0.181-0.051,0.272-0.068l0.279-0.039c0.184-0.032,0.374-0.027,0.557-0.039c0.186,0.01,0.371,0.01,0.553,0.035
				c0.182,0.026,0.363,0.05,0.538,0.105l0.262,0.074l0.253,0.096c0.17,0.054,0.329,0.152,0.487,0.23
				C167.406,155.03,167.546,155.136,167.693,155.231z"/>
			<path fill="#CECCCB" d="M210.191,163.187l-0.204-0.407c-0.075-0.131-0.156-0.255-0.232-0.381
				c-0.087-0.121-0.179-0.238-0.267-0.354c-0.095-0.115-0.198-0.22-0.296-0.327c-0.104-0.102-0.219-0.195-0.323-0.294
				c-0.113-0.092-0.232-0.177-0.345-0.264l-0.367-0.229l-0.382-0.186l-0.398-0.151l-0.409-0.114
				c-0.138-0.025-0.274-0.053-0.412-0.073c-0.14-0.011-0.277-0.028-0.416-0.036c-0.139,0.006-0.276,0.004-0.415,0.011
				c-0.137,0.017-0.274,0.025-0.411,0.042l-0.403,0.084l-0.392,0.119l-0.384,0.117l-0.186-0.393l-0.189-0.407
				c-0.071-0.128-0.149-0.259-0.221-0.388c-0.161-0.251-0.327-0.494-0.518-0.721l-0.07-0.085l0.002-0.022l0.008-0.016l-0.001-0.002
				c0.006,0.01-0.032-0.013,0.002,0.027l-0.025-0.017l-0.045-0.04l-0.168-0.176c-0.112-0.114-0.225-0.242-0.332-0.322l-0.318-0.273
				l-0.361-0.25c-0.115-0.09-0.25-0.15-0.375-0.227c-0.127-0.072-0.253-0.148-0.388-0.203c-0.135-0.059-0.266-0.125-0.404-0.176
				l-0.413-0.139c-0.139-0.049-0.285-0.072-0.423-0.107c-0.142-0.039-0.287-0.063-0.432-0.082c-0.288-0.053-0.579-0.055-0.871-0.068
				c-0.292,0.014-0.586,0.016-0.87,0.068l-0.219,0.029l-0.213,0.053c-0.14,0.035-0.287,0.056-0.423,0.107l-0.416,0.137
				c-0.135,0.053-0.267,0.118-0.4,0.178c-0.137,0.053-0.262,0.127-0.389,0.203c-0.124,0.076-0.26,0.134-0.376,0.227l-0.359,0.255
				l-0.022,0.015l-0.006,0.006h-0.003c-0.014,0.012,0.017-0.014,0.012-0.009l-0.012,0.009l-0.046,0.039l-0.092,0.078l-0.184,0.154
				c-0.1,0.102-0.203,0.191-0.303,0.297c-0.096,0.111-0.206,0.209-0.295,0.328c-0.093,0.115-0.186,0.23-0.269,0.354
				c-0.089,0.117-0.168,0.242-0.245,0.369c-0.16,0.25-0.29,0.52-0.414,0.791l-0.343,0.763l-0.458-0.638l-0.03-0.043l0.02-0.037
				l0.026-0.029v-0.002c0.035,0.039,0.008,0.011,0.016,0.02l-0.006-0.008l-0.047,0.006l-0.088-0.077l-0.155-0.167
				c-0.05-0.066-0.102-0.105-0.148-0.149l-0.143-0.136c-0.091-0.096-0.214-0.176-0.319-0.264c-0.105-0.094-0.23-0.16-0.345-0.24
				c-0.116-0.084-0.247-0.139-0.37-0.21c-0.124-0.067-0.259-0.11-0.391-0.167c-0.131-0.057-0.27-0.088-0.408-0.135
				c-0.138-0.035-0.279-0.059-0.42-0.094c-0.142-0.023-0.286-0.033-0.43-0.054c-0.145-0.009-0.289-0.009-0.436-0.014l-0.441,0.028
				l-0.438,0.072l-0.433,0.117l-0.423,0.156l-0.411,0.194l-0.396,0.235l0.345-0.313l0.379-0.272c0.133-0.085,0.271-0.16,0.409-0.238
				c0.143-0.068,0.289-0.129,0.435-0.194c0.151-0.051,0.303-0.101,0.457-0.146l0.473-0.1c0.16-0.018,0.323-0.037,0.483-0.047
				c0.162-0.002,0.325-0.011,0.489-0.004c0.163,0.014,0.326,0.023,0.488,0.051c0.159,0.034,0.324,0.059,0.482,0.101
				c0.157,0.052,0.319,0.087,0.473,0.151c0.152,0.064,0.312,0.117,0.458,0.195c0.145,0.082,0.3,0.148,0.437,0.244
				c0.138,0.099,0.28,0.178,0.412,0.293l0.203,0.17c0.066,0.059,0.135,0.115,0.184,0.17l0.162,0.166l0.08,0.083l0.02,0.019
				l0.007,0.006l0.022,0.025l0.008,0.012l0.039,0.044l-0.8,0.128c0.115-0.325,0.246-0.648,0.408-0.955
				c0.079-0.155,0.165-0.309,0.262-0.451c0.087-0.153,0.192-0.289,0.294-0.433c0.098-0.146,0.218-0.272,0.327-0.407
				c0.115-0.136,0.249-0.264,0.373-0.395l0.166-0.181l0.074-0.097l0.045-0.041l0.011-0.01l0.04-0.006l0.035-0.01l0.42-0.316
				c0.133-0.115,0.294-0.191,0.441-0.287c0.15-0.092,0.3-0.184,0.463-0.253c0.158-0.077,0.316-0.155,0.478-0.222l0.496-0.179
				c0.165-0.062,0.34-0.092,0.513-0.136l0.254-0.063l0.262-0.039c0.349-0.063,0.7-0.075,1.051-0.089
				c0.353,0.018,0.706,0.027,1.053,0.091c0.174,0.026,0.347,0.054,0.517,0.104c0.17,0.046,0.342,0.079,0.509,0.136l0.496,0.18
				c0.164,0.066,0.319,0.148,0.479,0.225c0.161,0.07,0.311,0.162,0.46,0.254s0.303,0.175,0.44,0.287l0.419,0.318l0.398,0.375
				c0.144,0.124,0.234,0.246,0.342,0.365l0.158,0.185l0.039,0.046l0.021,0.023l0.02,0.024l0.004,0.001l0.004,0.008l0.009,0.015
				l0.076,0.105c0.211,0.278,0.392,0.575,0.553,0.882c0.078,0.155,0.154,0.311,0.225,0.471l0.186,0.482l-0.568-0.275l0.484-0.11
				c0.164-0.024,0.328-0.041,0.494-0.06c0.163-0.01,0.328-0.012,0.492-0.012c0.164,0.006,0.33,0.025,0.491,0.041
				c0.162,0.023,0.322,0.057,0.483,0.09c0.158,0.039,0.312,0.09,0.468,0.133c0.152,0.058,0.301,0.123,0.45,0.179
				c0.146,0.071,0.288,0.147,0.43,0.225l0.398,0.267c0.126,0.102,0.251,0.199,0.372,0.304c0.111,0.112,0.229,0.222,0.336,0.337
				c0.1,0.119,0.201,0.24,0.295,0.366c0.087,0.131,0.176,0.259,0.256,0.394c0.072,0.14,0.148,0.272,0.214,0.413
				c0.057,0.146,0.116,0.288,0.166,0.431L210.191,163.187z"/>
			<path fill="#FFFFFF" d="M130.407,164.371l-7.399,0.922c0,0-25.045-15.841-50.823,9.734l-0.007,27.567h276.313
				c0,0-6.641-19.392-28.966-19.392c-22.329,0-24.079,7.35-24.079,7.35s-8.315-23.887-30.644-13.318c0,0-8.755-20.212-31.491-12.133
				C233.312,165.102,139.164,158.856,130.407,164.371z"/>
		</g>
		<g>
			<path fill="#F28021" d="M214.025,90.67c0,8.206-13.84,19.258-13.84,19.258s-13.84-11.053-13.84-19.258
				c0-8.207,6.195-10.46,13.84-10.46C207.827,80.21,214.025,82.464,214.025,90.67z"/>
			<path fill="#EDB31F" d="M209.736,89.048c0,5.665-9.551,13.293-9.551,13.293s-9.552-7.628-9.552-13.293
				c0-5.665,4.277-7.219,9.552-7.219C205.459,81.829,209.736,83.383,209.736,89.048z"/>
			<path fill="#F7CB6D" d="M205.718,86.335c0,3.282-5.532,7.7-5.532,7.7s-5.533-4.418-5.533-7.7c0-3.28,2.478-4.182,5.533-4.182
				C203.239,82.153,205.718,83.055,205.718,86.335z"/>
			<g>
				<g>
					<path fill="#353635" d="M188.895,61.308c0,0-19.056,8.403-19.056,26.613c0,0,1.191,2,3.095-0.401
						c1.907-2.4,3.574-9.004,15.723-9.004L188.895,61.308z"/>
					<path fill="#282828" d="M211.379,61.308c0,0,19.057,8.403,19.057,26.613c0,0-1.192,2-3.096-0.401
						c-1.907-2.4-3.574-9.004-15.723-9.004L211.379,61.308z"/>
				</g>
				<g>
					<path fill="#3E3E3E" d="M221.296,43.613c0-7.455-1.502-14.473-3.735-20.611h-17.423v6.229c6.446,0,11.672,4.39,11.672,9.805
						c0,5.417-5.226,9.807-11.672,9.807v31.514h11.403C217.408,72.603,221.296,59.043,221.296,43.613z"/>
					<path fill="#4A4A4A" d="M188.464,39.035c0-5.415,5.225-9.805,11.673-9.805v-6.229h-17.424
						c-2.234,6.138-3.733,13.156-3.733,20.611c0,15.431,3.888,28.99,9.754,36.743h11.403V48.842
						C193.689,48.842,188.464,44.452,188.464,39.035z"/>
					<path fill="#D7D6D6" d="M188.897,80.385c-0.294,0-0.533,0.2-0.533,0.448v2.092c0,0.247,0.239,0.447,0.533,0.447h11.241v-2.987
						H188.897z"/>
					<path fill="#CECCCB" d="M211.367,80.385h-11.229v2.987h11.229c0.295,0,0.535-0.201,0.535-0.447v-2.092
						C211.902,80.585,211.662,80.385,211.367,80.385z"/>
				</g>
			</g>
			<g>
				<path fill="#CECCCB" d="M200.138,0v23.001h17.423C212.579,9.31,203.942,0,200.138,0z"/>
				<path fill="#D7D6D6" d="M200.138,0c-3.806,0-12.443,9.31-17.424,23.001h17.424V0L200.138,0z"/>
				<path fill="#282828" d="M200.87,66.29c-0.057-0.016-0.118-0.025-0.182-0.025h-0.015h-0.535v22.461h0.599h0.019
					c0.333,0,0.606-0.229,0.606-0.51v-0.684l0.023-0.984l1.686-18.061C203.07,66.656,201.243,66.369,200.87,66.29z"/>
				<path fill="#353635" d="M199.538,66.265h-0.017c-0.063,0-0.126,0.009-0.182,0.025c-0.108,0.021-0.227,0.061-0.345,0.119
					c-0.664,0.181-1.791,0.667-1.791,2.104l1.688,18.079l0.022,0.915v0.682c0,0.215,0.156,0.397,0.379,0.474
					c0.087,0.041,0.188,0.064,0.294,0.064h0.016h0.535V66.265H199.538z"/>
			</g>
		</g>
	</g>
	<path fill="#A9A8A8" d="M282.142,163.525l-0.174-0.277c-0.064-0.087-0.133-0.169-0.196-0.252c-0.071-0.08-0.146-0.158-0.217-0.235
		c-0.076-0.073-0.158-0.142-0.236-0.211c-0.083-0.066-0.171-0.123-0.253-0.188c-0.087-0.055-0.179-0.107-0.266-0.161l-0.278-0.133
		l-0.29-0.107l-0.294-0.078l-0.301-0.052c-0.1-0.007-0.201-0.017-0.302-0.021c-0.099,0.004-0.198,0.002-0.298,0.009
		c-0.1,0.012-0.199,0.021-0.297,0.036c-0.096,0.021-0.193,0.039-0.289,0.061l-0.283,0.089l-0.271,0.116l-0.266,0.112l-0.16-0.268
		l-0.168-0.275c-0.061-0.089-0.125-0.173-0.186-0.259c-0.135-0.167-0.271-0.329-0.425-0.479l-0.057-0.057l0.001-0.016l0.003-0.01
		l-0.001-0.002c0.006,0.006-0.023-0.007,0.005,0.019l-0.021-0.01l-0.034-0.025l-0.133-0.112c-0.087-0.071-0.179-0.155-0.261-0.204
		l-0.249-0.172l-0.275-0.154c-0.09-0.056-0.19-0.09-0.286-0.133c-0.096-0.042-0.191-0.086-0.294-0.113
		c-0.101-0.034-0.196-0.072-0.3-0.098l-0.307-0.068c-0.102-0.023-0.208-0.028-0.311-0.045c-0.104-0.02-0.209-0.022-0.313-0.024
		c-0.211-0.017-0.42,0.003-0.629,0.016c-0.206,0.032-0.417,0.056-0.617,0.114l-0.152,0.037l-0.148,0.051
		c-0.099,0.038-0.2,0.063-0.295,0.109l-0.286,0.131c-0.094,0.048-0.182,0.104-0.273,0.155c-0.093,0.05-0.178,0.112-0.263,0.175
		c-0.082,0.064-0.175,0.116-0.251,0.189l-0.239,0.209l-0.014,0.014l-0.003,0.004h-0.003c-0.009,0.01,0.011-0.011,0.008-0.009
		l-0.008,0.009l-0.029,0.032l-0.06,0.063l-0.12,0.125c-0.064,0.078-0.13,0.151-0.194,0.234c-0.061,0.085-0.132,0.165-0.187,0.256
		c-0.058,0.09-0.115,0.179-0.165,0.272c-0.055,0.09-0.102,0.187-0.148,0.284c-0.094,0.188-0.168,0.39-0.234,0.594l-0.188,0.572
		l-0.375-0.422l-0.025-0.029l0.012-0.027l0.017-0.021v-0.002c0.028,0.025,0.006,0.005,0.013,0.012l-0.004-0.002l-0.033,0.005
		l-0.069-0.049l-0.123-0.109c-0.041-0.041-0.08-0.064-0.118-0.094l-0.111-0.086c-0.073-0.063-0.166-0.109-0.248-0.166
		c-0.083-0.058-0.177-0.097-0.265-0.146c-0.088-0.05-0.186-0.079-0.278-0.12c-0.094-0.04-0.194-0.061-0.291-0.093
		c-0.1-0.029-0.201-0.043-0.303-0.063c-0.102-0.017-0.205-0.021-0.307-0.036c-0.104-0.007-0.207-0.005-0.313-0.007
		c-0.104,0.006-0.207,0.016-0.313,0.022l-0.313,0.057l-0.308,0.083l-0.3,0.112l-0.289,0.145l-0.28,0.171l-0.266,0.197l0.223-0.249
		l0.25-0.226c0.089-0.068,0.184-0.132,0.275-0.198c0.098-0.06,0.198-0.114,0.298-0.17c0.103-0.05,0.208-0.097,0.315-0.142
		l0.328-0.105c0.114-0.022,0.228-0.051,0.342-0.071c0.116-0.012,0.231-0.029,0.35-0.037c0.116-0.002,0.234-0.007,0.352,0
		c0.118,0.012,0.236,0.017,0.354,0.035c0.114,0.024,0.233,0.039,0.347,0.071c0.113,0.036,0.232,0.062,0.342,0.107
		c0.109,0.048,0.228,0.082,0.331,0.142c0.106,0.06,0.215,0.105,0.317,0.181l0.156,0.104c0.054,0.036,0.104,0.071,0.145,0.107
		l0.129,0.104l0.063,0.055l0.015,0.016l0.005,0.001l0.017,0.018l0.009,0.009l0.031,0.028l-0.562,0.15
		c0.058-0.24,0.125-0.48,0.22-0.714c0.044-0.115,0.094-0.231,0.151-0.342c0.053-0.114,0.116-0.222,0.178-0.33
		c0.061-0.111,0.136-0.212,0.205-0.317c0.071-0.104,0.155-0.208,0.237-0.31l0.103-0.14l0.047-0.075l0.029-0.032l0.007-0.007
		l0.029-0.008l0.021-0.012l0.277-0.258c0.088-0.09,0.196-0.158,0.295-0.236c0.101-0.076,0.201-0.153,0.311-0.217
		c0.108-0.064,0.215-0.135,0.326-0.193l0.34-0.166c0.115-0.056,0.238-0.09,0.356-0.136l0.178-0.063l0.183-0.045
		c0.245-0.072,0.496-0.107,0.746-0.144c0.252-0.015,0.506-0.036,0.76-0.014c0.125,0.005,0.25,0.011,0.376,0.032
		c0.125,0.02,0.251,0.031,0.374,0.062l0.367,0.092c0.122,0.032,0.238,0.08,0.359,0.122c0.12,0.038,0.234,0.093,0.348,0.146
		c0.113,0.057,0.23,0.104,0.336,0.174l0.323,0.196l0.313,0.236c0.112,0.079,0.186,0.159,0.271,0.237l0.127,0.119l0.032,0.03
		l0.015,0.015l0.017,0.014l0.002,0.004l0.004,0.006l0.007,0.006l0.063,0.072c0.171,0.182,0.323,0.381,0.463,0.589
		c0.064,0.107,0.132,0.211,0.193,0.318l0.169,0.332l-0.428-0.155l0.339-0.114c0.115-0.028,0.231-0.055,0.348-0.08
		c0.117-0.021,0.234-0.032,0.352-0.046c0.119-0.007,0.238-0.005,0.354-0.007c0.118,0.005,0.236,0.018,0.352,0.027
		c0.116,0.018,0.23,0.041,0.345,0.06c0.113,0.031,0.226,0.063,0.337,0.096c0.108,0.041,0.217,0.083,0.322,0.128l0.306,0.161
		c0.096,0.062,0.193,0.123,0.288,0.189c0.088,0.069,0.179,0.14,0.266,0.213c0.08,0.08,0.162,0.158,0.238,0.241
		c0.071,0.087,0.145,0.17,0.212,0.261c0.061,0.094,0.126,0.184,0.186,0.281c0.049,0.099,0.102,0.195,0.149,0.296L282.142,163.525z"
		/>
	<path fill="#A9A8A8" d="M232.87,153.397l-0.175-0.277c-0.064-0.088-0.133-0.169-0.195-0.252c-0.072-0.08-0.146-0.158-0.218-0.235
		c-0.076-0.073-0.158-0.142-0.236-0.212c-0.083-0.065-0.17-0.122-0.253-0.187c-0.087-0.055-0.179-0.107-0.266-0.161l-0.278-0.133
		l-0.289-0.107l-0.295-0.078l-0.301-0.052c-0.1-0.007-0.2-0.017-0.302-0.021c-0.099,0.004-0.198,0.002-0.298,0.009
		c-0.1,0.012-0.198,0.021-0.296,0.036c-0.097,0.021-0.194,0.039-0.29,0.061l-0.282,0.089l-0.271,0.116l-0.266,0.111l-0.161-0.267
		l-0.168-0.276c-0.061-0.088-0.125-0.172-0.186-0.258c-0.135-0.168-0.271-0.329-0.425-0.479l-0.056-0.057l0.001-0.016l0.002-0.01
		l-0.001-0.002c0.006,0.005-0.022-0.007,0.006,0.019l-0.021-0.01l-0.035-0.026l-0.133-0.111c-0.087-0.072-0.179-0.155-0.261-0.205
		l-0.248-0.172l-0.276-0.152c-0.089-0.057-0.19-0.091-0.286-0.133c-0.096-0.043-0.191-0.088-0.293-0.115
		c-0.101-0.033-0.197-0.07-0.301-0.097l-0.307-0.067c-0.102-0.024-0.208-0.029-0.311-0.047c-0.103-0.019-0.209-0.021-0.313-0.023
		c-0.21-0.018-0.42,0.004-0.628,0.016c-0.207,0.032-0.417,0.056-0.617,0.113l-0.153,0.038l-0.148,0.051
		c-0.099,0.038-0.2,0.063-0.294,0.108l-0.286,0.132c-0.095,0.048-0.183,0.104-0.274,0.155c-0.093,0.049-0.177,0.111-0.262,0.175
		c-0.083,0.065-0.176,0.116-0.252,0.188l-0.238,0.21l-0.014,0.014l-0.004,0.003h-0.002c-0.01,0.011,0.011-0.01,0.007-0.008
		l-0.007,0.008l-0.03,0.033l-0.06,0.063l-0.12,0.125c-0.063,0.078-0.129,0.15-0.194,0.234c-0.061,0.085-0.132,0.165-0.187,0.256
		c-0.058,0.09-0.115,0.178-0.165,0.271c-0.054,0.091-0.101,0.188-0.147,0.285c-0.095,0.188-0.169,0.39-0.235,0.594l-0.188,0.572
		l-0.374-0.422l-0.025-0.029l0.011-0.027l0.017-0.022v-0.001c0.028,0.025,0.007,0.005,0.014,0.012l-0.005-0.002l-0.033,0.005
		l-0.068-0.05l-0.124-0.108c-0.041-0.041-0.08-0.064-0.118-0.094l-0.11-0.087c-0.073-0.063-0.167-0.109-0.249-0.165
		c-0.082-0.058-0.176-0.097-0.265-0.146c-0.088-0.05-0.186-0.078-0.278-0.119c-0.094-0.04-0.194-0.062-0.291-0.093
		c-0.1-0.029-0.201-0.043-0.302-0.063c-0.102-0.017-0.206-0.021-0.307-0.036c-0.105-0.007-0.208-0.005-0.313-0.007
		c-0.104,0.005-0.208,0.016-0.313,0.022l-0.313,0.057l-0.308,0.083l-0.299,0.112l-0.29,0.145l-0.28,0.17l-0.266,0.197l0.223-0.248
		l0.25-0.227c0.09-0.068,0.185-0.131,0.276-0.197c0.097-0.06,0.197-0.114,0.297-0.17c0.103-0.05,0.208-0.098,0.315-0.142
		l0.329-0.105c0.114-0.022,0.228-0.052,0.341-0.071c0.116-0.012,0.231-0.029,0.351-0.037c0.115-0.002,0.233-0.008,0.352,0
		c0.117,0.012,0.235,0.017,0.354,0.035c0.114,0.023,0.233,0.039,0.348,0.071c0.113,0.036,0.231,0.062,0.341,0.107
		c0.11,0.048,0.228,0.081,0.331,0.142c0.106,0.059,0.215,0.105,0.318,0.18l0.155,0.104c0.054,0.036,0.104,0.071,0.145,0.106
		l0.129,0.104l0.063,0.055l0.015,0.015l0.005,0.002l0.018,0.018l0.009,0.008l0.03,0.029l-0.562,0.15
		c0.059-0.24,0.126-0.48,0.22-0.714c0.045-0.116,0.094-0.231,0.151-0.343c0.054-0.113,0.116-0.221,0.179-0.33
		c0.061-0.11,0.135-0.211,0.204-0.316c0.071-0.104,0.155-0.207,0.237-0.31l0.104-0.14l0.046-0.075l0.029-0.032l0.007-0.007
		l0.03-0.009l0.021-0.012l0.278-0.257c0.087-0.091,0.195-0.159,0.294-0.237c0.101-0.076,0.201-0.152,0.311-0.216
		c0.108-0.064,0.215-0.134,0.326-0.194l0.341-0.164c0.115-0.057,0.237-0.091,0.355-0.137l0.178-0.063l0.184-0.047
		c0.244-0.071,0.495-0.107,0.745-0.143c0.252-0.016,0.506-0.036,0.76-0.014c0.125,0.005,0.25,0.01,0.376,0.032
		c0.125,0.019,0.251,0.03,0.374,0.062l0.367,0.092c0.122,0.032,0.239,0.08,0.359,0.123c0.12,0.037,0.234,0.092,0.349,0.146
		c0.112,0.056,0.229,0.104,0.335,0.173l0.324,0.196l0.312,0.236c0.113,0.078,0.186,0.158,0.271,0.236l0.127,0.119l0.033,0.031
		l0.014,0.016l0.017,0.014l0.003,0.003l0.003,0.005l0.008,0.007l0.063,0.071c0.172,0.183,0.324,0.382,0.464,0.59
		c0.064,0.107,0.132,0.211,0.192,0.318l0.169,0.332l-0.428-0.155l0.339-0.114c0.115-0.029,0.231-0.055,0.348-0.08
		c0.117-0.021,0.235-0.032,0.352-0.046c0.119-0.007,0.238-0.005,0.354-0.007c0.118,0.005,0.235,0.018,0.352,0.027
		c0.115,0.018,0.23,0.041,0.345,0.06c0.113,0.03,0.226,0.063,0.337,0.095c0.108,0.041,0.216,0.084,0.321,0.129l0.306,0.161
		c0.097,0.062,0.193,0.122,0.288,0.188c0.089,0.07,0.18,0.141,0.266,0.213c0.081,0.08,0.162,0.158,0.239,0.242
		c0.07,0.087,0.144,0.17,0.212,0.26c0.061,0.094,0.126,0.185,0.185,0.281c0.05,0.1,0.103,0.196,0.149,0.297L232.87,153.397z"/>
	<g>
		<path fill="#282828" d="M339.161,172.821c-13.166,0-25.588,3.037-36.542,8.412c-11.78-10.979-27.886-17.754-45.657-17.754
			c-18.104,0-34.485,7.022-46.318,18.366c-7.854-9.746-20.191-16.034-34.075-16.034c-11.813,0-22.509,4.55-30.275,11.909
			c-9.32-5.322-20.22-8.387-31.872-8.387c-10.864,0-21.071,2.665-29.957,7.336c-8.651-4.707-18.658-7.41-29.33-7.41
			c-32.743,0-59.288,25.314-59.288,56.545c0,3.286,0.31,6.498,0.874,9.631h421.13C411.102,199.829,378.439,172.821,339.161,172.821z
			"/>
	</g>
	<path fill="#434343" d="M143.768,185.779c-0.18-0.048-0.354-0.117-0.535-0.16c-0.182-0.034-0.352-0.083-0.534-0.099l-0.269-0.034
		l-0.27-0.009c-0.177-0.012-0.356,0.014-0.531,0.021c-0.175,0.012-0.349,0.048-0.52,0.075c-0.168,0.048-0.34,0.075-0.501,0.142
		c-0.163,0.056-0.324,0.113-0.478,0.188c-0.158,0.064-0.304,0.155-0.45,0.238c-0.148,0.084-0.279,0.192-0.417,0.288
		c-0.124,0.112-0.26,0.209-0.371,0.335c-0.116,0.119-0.236,0.233-0.333,0.368c-0.051,0.064-0.106,0.126-0.153,0.192l-0.134,0.208
		c-0.097,0.133-0.159,0.287-0.237,0.429l-0.029,0.056l-0.002,0.002c0.004-0.01-0.011,0.024,0.01-0.021l-0.001,0.004l-0.003,0.007
		l-0.007,0.017l-0.013,0.032l-0.053,0.128c-0.031,0.082-0.08,0.181-0.094,0.249c-0.042,0.143-0.089,0.284-0.121,0.445
		c-0.042,0.157-0.053,0.317-0.08,0.476l-0.159,0.946l-0.845-0.545c-0.175-0.11-0.342-0.233-0.518-0.339l-0.271-0.147l-0.134-0.075
		l-0.034-0.019l-0.003-0.002c-0.026-0.014,0.033,0.016,0.026,0.012h-0.002l-0.01-0.005l-0.02-0.009l-0.079-0.034l-0.315-0.136
		l-0.158-0.066l-0.139-0.043c-0.186-0.055-0.357-0.126-0.565-0.161l-0.298-0.068c-0.1-0.017-0.202-0.023-0.303-0.037
		c-0.102-0.011-0.202-0.033-0.303-0.038l-0.305-0.01c-0.204-0.019-0.408,0.008-0.611,0.015c-0.203,0.009-0.403,0.059-0.605,0.079
		c-0.198,0.041-0.397,0.088-0.593,0.141c-0.191,0.072-0.392,0.119-0.577,0.206c-0.185,0.082-0.378,0.151-0.554,0.259l-0.269,0.146
		c-0.085,0.055-0.169,0.114-0.254,0.172c-0.174,0.107-0.333,0.237-0.492,0.366c-0.167,0.121-0.301,0.277-0.452,0.417
		c-0.148,0.144-0.27,0.311-0.41,0.462c-0.126,0.163-0.238,0.337-0.361,0.505l-0.333,0.457l-0.46-0.224
		c-0.134-0.064-0.263-0.143-0.402-0.197c-0.136-0.064-0.279-0.108-0.42-0.162c-0.146-0.037-0.29-0.083-0.439-0.106
		c-0.149-0.036-0.299-0.046-0.451-0.068c-0.151-0.005-0.305-0.019-0.458-0.011c-0.154-0.001-0.307,0.016-0.461,0.026
		c-0.152,0.026-0.308,0.044-0.458,0.083c-0.153,0.03-0.3,0.083-0.451,0.13c-0.143,0.06-0.294,0.11-0.434,0.184
		c-0.146,0.063-0.283,0.145-0.422,0.223c-0.07,0.039-0.135,0.087-0.202,0.131l-0.128,0.041l-0.038-0.019l-0.002,0.002
		c0.006-0.007-0.015,0.014,0.013-0.016l-0.002,0.005l0.021,0.032l-0.011,0.033l-0.042,0.051l-0.387,0.337
		c-0.125,0.11-0.216,0.235-0.329,0.353c-0.054,0.062-0.112,0.119-0.162,0.184l-0.138,0.208c-0.086,0.143-0.207,0.271-0.271,0.428
		l-0.233,0.456c0.036-0.167,0.075-0.334,0.115-0.504c0.03-0.176,0.112-0.331,0.174-0.496l0.102-0.245
		c0.038-0.08,0.089-0.156,0.134-0.234c0.094-0.15,0.185-0.323,0.29-0.462l0.331-0.395l0.042-0.048l0.021-0.025l0.005-0.005
		l-0.028-0.036l-0.012-0.048l0.012-0.012l0.128-0.063c0.067-0.062,0.146-0.111,0.217-0.171c0.141-0.114,0.29-0.225,0.444-0.323
		c0.151-0.107,0.32-0.188,0.482-0.277c0.168-0.077,0.336-0.16,0.514-0.22c0.173-0.07,0.355-0.117,0.536-0.17
		c0.183-0.038,0.367-0.086,0.555-0.103c0.187-0.029,0.377-0.032,0.567-0.041c0.188,0.005,0.379,0.004,0.568,0.029
		c0.191,0.014,0.377,0.053,0.566,0.085c0.186,0.048,0.374,0.087,0.554,0.153c0.186,0.053,0.361,0.135,0.538,0.211l-0.793,0.233
		c0.131-0.211,0.254-0.433,0.395-0.639c0.153-0.199,0.292-0.41,0.465-0.594c0.175-0.183,0.334-0.38,0.53-0.54
		c0.189-0.169,0.376-0.339,0.587-0.48c0.103-0.073,0.204-0.147,0.31-0.218l0.327-0.192c0.215-0.136,0.449-0.233,0.678-0.34
		c0.229-0.111,0.475-0.176,0.712-0.265c0.245-0.069,0.491-0.127,0.739-0.184c0.25-0.032,0.5-0.087,0.754-0.096
		c0.254-0.01,0.507-0.035,0.761-0.014l0.379,0.02c0.128,0.008,0.252,0.032,0.377,0.049c0.125,0.021,0.251,0.036,0.375,0.062
		l0.37,0.094c0.244,0.051,0.496,0.151,0.744,0.24l0.186,0.069l0.155,0.075l0.308,0.149l0.078,0.039l0.067,0.034l0.041,0.024
		l0.162,0.097l0.322,0.197c0.209,0.14,0.402,0.304,0.602,0.453l-1.005,0.403c0.046-0.206,0.078-0.414,0.146-0.612
		c0.052-0.198,0.133-0.405,0.221-0.606c0.042-0.112,0.086-0.174,0.129-0.263l0.064-0.124l0.043-0.082l0.042-0.067
		c0.116-0.171,0.212-0.354,0.35-0.511l0.192-0.242c0.066-0.078,0.142-0.149,0.212-0.223c0.14-0.153,0.298-0.284,0.457-0.414
		c0.156-0.131,0.336-0.231,0.502-0.346c0.181-0.095,0.354-0.2,0.541-0.275c0.187-0.078,0.371-0.158,0.564-0.211
		c0.097-0.025,0.191-0.062,0.288-0.082l0.295-0.057c0.192-0.04,0.395-0.04,0.589-0.063c0.197,0,0.393-0.005,0.587,0.014
		c0.195,0.021,0.388,0.037,0.576,0.087l0.282,0.066l0.272,0.092c0.183,0.051,0.356,0.148,0.527,0.225
		C143.455,185.576,143.608,185.683,143.768,185.779z"/>
	<path fill="#434343" d="M212.264,198.026l-0.268-0.534c-0.101-0.172-0.207-0.336-0.308-0.501c-0.114-0.16-0.235-0.313-0.35-0.47
		c-0.126-0.146-0.26-0.286-0.39-0.428c-0.138-0.134-0.286-0.259-0.426-0.386c-0.147-0.121-0.303-0.231-0.452-0.346l-0.482-0.3
		l-0.506-0.247l-0.521-0.199l-0.536-0.149c-0.183-0.032-0.363-0.07-0.543-0.098c-0.185-0.014-0.366-0.035-0.549-0.042
		c-0.182,0.005-0.364,0-0.545,0.01c-0.18,0.024-0.362,0.034-0.539,0.059l-0.529,0.106l-0.517,0.157l-0.505,0.153l-0.244-0.517
		l-0.252-0.53c-0.092-0.174-0.192-0.343-0.289-0.511c-0.211-0.329-0.43-0.652-0.681-0.949l-0.092-0.113l0.005-0.027l0.008-0.022
		l-0.003-0.002c0.009,0.011-0.039-0.017,0.006,0.036l-0.035-0.022l-0.059-0.054l-0.221-0.229c-0.146-0.148-0.296-0.32-0.436-0.424
		l-0.42-0.357l-0.474-0.332c-0.152-0.119-0.329-0.201-0.495-0.298c-0.167-0.098-0.331-0.196-0.511-0.266
		c-0.176-0.077-0.348-0.165-0.529-0.231l-0.545-0.185c-0.182-0.06-0.373-0.092-0.558-0.141c-0.185-0.055-0.375-0.082-0.565-0.105
		c-0.379-0.072-0.764-0.072-1.146-0.093c-0.384,0.021-0.768,0.021-1.145,0.091l-0.286,0.037l-0.279,0.066
		c-0.186,0.051-0.376,0.078-0.558,0.145l-0.545,0.181c-0.179,0.07-0.351,0.157-0.527,0.233c-0.18,0.069-0.345,0.169-0.512,0.266
		c-0.163,0.104-0.342,0.179-0.494,0.298l-0.473,0.335l-0.029,0.021l-0.007,0.007l-0.004,0.002c-0.018,0.016,0.021-0.019,0.015-0.014
		l-0.015,0.012l-0.06,0.052l-0.123,0.104l-0.242,0.204c-0.13,0.131-0.265,0.25-0.398,0.389c-0.127,0.145-0.271,0.277-0.387,0.432
		c-0.123,0.152-0.247,0.302-0.355,0.464c-0.115,0.156-0.22,0.319-0.322,0.486c-0.209,0.329-0.38,0.683-0.542,1.042l-0.453,1.003
		l-0.599-0.839l-0.042-0.059l0.027-0.047l0.035-0.04l-0.001-0.001c0.046,0.053,0.011,0.015,0.022,0.025l-0.008-0.007l-0.062,0.005
		l-0.115-0.099l-0.205-0.225c-0.066-0.085-0.133-0.138-0.195-0.196l-0.188-0.179c-0.119-0.126-0.281-0.229-0.419-0.349
		c-0.14-0.119-0.303-0.206-0.455-0.315c-0.151-0.106-0.324-0.179-0.485-0.272c-0.163-0.088-0.341-0.147-0.512-0.223
		c-0.174-0.069-0.357-0.114-0.537-0.174c-0.18-0.049-0.368-0.076-0.553-0.122c-0.187-0.032-0.376-0.048-0.566-0.073
		c-0.19-0.011-0.381-0.012-0.575-0.019l-0.577,0.04l-0.575,0.094l-0.569,0.15l-0.557,0.204l-0.542,0.259l-0.521,0.31l0.455-0.41
		l0.497-0.364c0.175-0.107,0.358-0.204,0.54-0.309c0.187-0.088,0.38-0.17,0.572-0.253c0.198-0.068,0.398-0.133,0.601-0.196
		l0.622-0.128c0.21-0.021,0.422-0.049,0.635-0.066c0.213,0,0.427-0.01,0.642-0.001c0.213,0.019,0.429,0.03,0.642,0.066
		c0.211,0.046,0.427,0.076,0.635,0.134c0.206,0.065,0.42,0.114,0.621,0.196c0.2,0.087,0.411,0.155,0.603,0.261
		c0.19,0.105,0.395,0.192,0.575,0.318c0.181,0.131,0.368,0.234,0.542,0.388l0.265,0.222c0.088,0.078,0.179,0.153,0.242,0.223
		l0.213,0.217l0.105,0.108l0.026,0.027l0.007,0.007l0.029,0.034l0.013,0.016l0.051,0.061l-1.052,0.165
		c0.153-0.427,0.322-0.853,0.538-1.256c0.102-0.204,0.214-0.402,0.341-0.595c0.117-0.197,0.253-0.383,0.388-0.566
		c0.13-0.19,0.287-0.357,0.432-0.538c0.15-0.176,0.325-0.348,0.489-0.518l0.216-0.236l0.098-0.128l0.06-0.053l0.015-0.014
		l0.054-0.007l0.043-0.019l0.552-0.414c0.178-0.148,0.388-0.25,0.583-0.374c0.196-0.121,0.394-0.242,0.607-0.334
		c0.209-0.099,0.415-0.206,0.63-0.293l0.653-0.235c0.218-0.08,0.448-0.119,0.671-0.179l0.338-0.081l0.343-0.052
		c0.457-0.081,0.92-0.095,1.382-0.113c0.463,0.021,0.927,0.032,1.383,0.117c0.229,0.034,0.458,0.069,0.681,0.133
		c0.225,0.06,0.452,0.104,0.67,0.182l0.652,0.237c0.214,0.085,0.419,0.193,0.629,0.291c0.211,0.094,0.41,0.215,0.606,0.335
		c0.194,0.125,0.399,0.231,0.578,0.378l0.55,0.421l0.524,0.488c0.189,0.167,0.308,0.325,0.45,0.487l0.207,0.238l0.052,0.062
		l0.026,0.03l0.025,0.029l0.004,0.007l0.005,0.008l0.014,0.018l0.1,0.14c0.277,0.366,0.517,0.758,0.731,1.159
		c0.098,0.208,0.199,0.41,0.291,0.618l0.244,0.639l-0.749-0.364l0.64-0.144c0.215-0.032,0.433-0.055,0.647-0.082
		c0.216-0.012,0.434-0.014,0.65-0.014c0.216,0.009,0.432,0.034,0.645,0.054c0.213,0.032,0.424,0.078,0.635,0.115
		c0.208,0.055,0.412,0.119,0.617,0.179c0.2,0.073,0.396,0.156,0.594,0.235c0.189,0.094,0.376,0.195,0.562,0.294l0.526,0.351
		c0.162,0.135,0.327,0.265,0.485,0.4c0.149,0.148,0.301,0.291,0.442,0.439c0.133,0.162,0.268,0.32,0.39,0.483
		c0.112,0.174,0.231,0.342,0.336,0.518c0.095,0.184,0.195,0.359,0.282,0.543c0.073,0.192,0.15,0.382,0.218,0.568L212.264,198.026z"
		/>
	<path fill="#434343" d="M289.313,191.387l-0.266-0.538c-0.102-0.17-0.21-0.334-0.309-0.499c-0.114-0.158-0.234-0.314-0.351-0.468
		c-0.124-0.148-0.261-0.286-0.389-0.429c-0.138-0.135-0.288-0.256-0.426-0.387c-0.148-0.119-0.304-0.231-0.453-0.348l-0.481-0.296
		l-0.505-0.249l-0.522-0.197l-0.536-0.151c-0.182-0.032-0.363-0.07-0.545-0.097c-0.182-0.013-0.364-0.034-0.546-0.043
		c-0.184,0.005-0.365,0.002-0.546,0.01c-0.182,0.024-0.361,0.034-0.54,0.059l-0.53,0.107l-0.515,0.158l-0.504,0.153l-0.243-0.518
		l-0.251-0.533c-0.094-0.172-0.195-0.339-0.291-0.509c-0.213-0.329-0.431-0.65-0.682-0.948l-0.091-0.114l0.003-0.027l0.009-0.021
		l-0.002-0.003c0.01,0.01-0.04-0.018,0.005,0.035l-0.034-0.022l-0.059-0.054l-0.222-0.229c-0.145-0.148-0.296-0.318-0.436-0.422
		l-0.419-0.361l-0.476-0.33c-0.151-0.119-0.328-0.201-0.493-0.298c-0.167-0.098-0.332-0.194-0.512-0.266
		c-0.177-0.077-0.348-0.165-0.528-0.231l-0.546-0.185c-0.182-0.061-0.373-0.092-0.558-0.141c-0.185-0.055-0.375-0.082-0.564-0.105
		c-0.379-0.07-0.765-0.072-1.146-0.091c-0.384,0.019-0.769,0.021-1.146,0.089l-0.285,0.039l-0.279,0.066
		c-0.186,0.05-0.378,0.076-0.557,0.143l-0.547,0.183c-0.18,0.068-0.352,0.155-0.528,0.229c-0.179,0.072-0.345,0.171-0.51,0.27
		c-0.163,0.101-0.343,0.177-0.493,0.298l-0.476,0.334l-0.028,0.021l-0.008,0.005l-0.004,0.003c-0.018,0.016,0.021-0.019,0.016-0.014
		l-0.016,0.014l-0.06,0.052l-0.121,0.102l-0.243,0.204c-0.129,0.132-0.264,0.251-0.397,0.391c-0.127,0.145-0.271,0.277-0.387,0.432
		c-0.123,0.15-0.246,0.3-0.355,0.462c-0.115,0.156-0.219,0.321-0.321,0.488c-0.21,0.329-0.382,0.682-0.544,1.039l-0.451,1.006
		l-0.6-0.841l-0.042-0.059l0.026-0.047l0.034-0.038v-0.001c0.046,0.051,0.011,0.012,0.021,0.023l-0.007-0.007l-0.063,0.005
		l-0.115-0.101l-0.205-0.223c-0.064-0.083-0.132-0.137-0.195-0.194l-0.187-0.181c-0.119-0.126-0.28-0.229-0.42-0.345
		c-0.14-0.123-0.303-0.212-0.453-0.318c-0.152-0.107-0.323-0.18-0.486-0.271c-0.163-0.09-0.341-0.147-0.512-0.225
		c-0.174-0.071-0.357-0.114-0.537-0.174c-0.181-0.051-0.369-0.076-0.553-0.122c-0.187-0.032-0.377-0.048-0.566-0.073
		c-0.19-0.011-0.382-0.011-0.574-0.019l-0.578,0.041l-0.575,0.093l-0.568,0.15l-0.556,0.208l-0.542,0.255l-0.521,0.309l0.453-0.409
		l0.497-0.364c0.176-0.107,0.359-0.204,0.541-0.308c0.188-0.089,0.38-0.169,0.572-0.254c0.196-0.068,0.398-0.135,0.6-0.196
		l0.622-0.127c0.211-0.021,0.422-0.05,0.635-0.065c0.213-0.001,0.428-0.01,0.642-0.003c0.214,0.021,0.43,0.032,0.643,0.068
		c0.211,0.044,0.426,0.074,0.637,0.133c0.204,0.066,0.418,0.113,0.619,0.195c0.2,0.089,0.409,0.155,0.602,0.261
		c0.191,0.105,0.396,0.194,0.576,0.32c0.181,0.129,0.368,0.232,0.543,0.386l0.264,0.224c0.09,0.074,0.178,0.151,0.242,0.223
		l0.213,0.215l0.106,0.11l0.025,0.027l0.008,0.005l0.028,0.034l0.014,0.017l0.05,0.06l-1.051,0.166
		c0.151-0.428,0.321-0.852,0.537-1.257c0.103-0.203,0.215-0.403,0.342-0.594c0.117-0.198,0.252-0.382,0.388-0.567
		c0.129-0.19,0.287-0.357,0.431-0.536c0.149-0.177,0.325-0.35,0.49-0.52l0.217-0.234l0.1-0.128l0.058-0.055l0.015-0.012l0.055-0.009
		l0.043-0.017l0.553-0.416c0.178-0.147,0.387-0.25,0.582-0.374c0.195-0.121,0.394-0.24,0.606-0.334
		c0.21-0.097,0.417-0.204,0.63-0.291l0.653-0.236c0.219-0.08,0.447-0.119,0.672-0.18l0.337-0.079l0.344-0.052
		c0.458-0.083,0.92-0.099,1.383-0.115c0.462,0.021,0.927,0.032,1.383,0.119c0.229,0.032,0.456,0.068,0.681,0.131
		c0.224,0.06,0.451,0.104,0.669,0.183l0.651,0.238c0.216,0.083,0.42,0.192,0.631,0.291c0.211,0.092,0.409,0.211,0.605,0.333
		c0.194,0.125,0.399,0.233,0.577,0.382l0.551,0.417l0.524,0.488c0.189,0.166,0.309,0.327,0.45,0.487l0.206,0.24l0.054,0.062
		l0.025,0.028l0.025,0.031l0.005,0.005l0.005,0.009l0.014,0.017l0.101,0.14c0.274,0.366,0.515,0.758,0.729,1.161
		c0.097,0.206,0.2,0.408,0.292,0.618l0.243,0.637l-0.748-0.364l0.639-0.144c0.214-0.032,0.432-0.055,0.647-0.08
		c0.216-0.014,0.434-0.015,0.648-0.017c0.217,0.01,0.434,0.037,0.647,0.055c0.214,0.032,0.424,0.078,0.633,0.117
		c0.208,0.055,0.413,0.119,0.616,0.177c0.2,0.075,0.398,0.157,0.596,0.237c0.189,0.093,0.377,0.193,0.562,0.294l0.525,0.351
		c0.165,0.133,0.328,0.263,0.487,0.398c0.147,0.146,0.3,0.29,0.443,0.441c0.132,0.16,0.265,0.318,0.389,0.483
		c0.111,0.174,0.23,0.341,0.337,0.516c0.094,0.183,0.194,0.359,0.281,0.545c0.073,0.19,0.149,0.38,0.218,0.568L289.313,191.387z"/>
	<path fill="#434343" d="M88.557,192.575l-0.266-0.538c-0.102-0.171-0.209-0.334-0.308-0.499c-0.114-0.158-0.235-0.315-0.351-0.468
		c-0.124-0.148-0.26-0.286-0.39-0.43c-0.136-0.135-0.288-0.255-0.426-0.387c-0.148-0.119-0.303-0.231-0.453-0.347l-0.482-0.297
		l-0.504-0.248l-0.522-0.197l-0.537-0.151c-0.182-0.033-0.362-0.07-0.544-0.098c-0.183-0.012-0.365-0.034-0.547-0.042
		c-0.184,0.005-0.364,0.001-0.544,0.01c-0.183,0.023-0.361,0.034-0.54,0.058l-0.531,0.107l-0.514,0.158l-0.504,0.153l-0.243-0.518
		l-0.252-0.532c-0.094-0.173-0.194-0.339-0.29-0.51c-0.213-0.328-0.431-0.65-0.683-0.948l-0.09-0.114l0.003-0.026l0.008-0.021
		l-0.001-0.004c0.008,0.011-0.041-0.017,0.005,0.036l-0.036-0.022l-0.058-0.055l-0.222-0.228c-0.145-0.148-0.296-0.318-0.436-0.423
		l-0.419-0.36l-0.475-0.331c-0.151-0.119-0.329-0.2-0.494-0.298c-0.167-0.097-0.332-0.193-0.513-0.266
		c-0.175-0.076-0.347-0.165-0.527-0.231l-0.547-0.184c-0.18-0.062-0.373-0.092-0.557-0.142c-0.186-0.054-0.375-0.081-0.565-0.105
		c-0.378-0.069-0.765-0.071-1.146-0.09c-0.383,0.019-0.768,0.021-1.146,0.089l-0.286,0.039l-0.279,0.066
		c-0.186,0.049-0.376,0.076-0.557,0.143l-0.547,0.183c-0.179,0.067-0.351,0.154-0.527,0.229c-0.179,0.071-0.344,0.17-0.509,0.269
		c-0.164,0.101-0.344,0.178-0.494,0.298l-0.475,0.334l-0.029,0.021l-0.009,0.005l-0.003,0.004c-0.017,0.016,0.022-0.019,0.016-0.014
		l-0.016,0.014l-0.06,0.051l-0.121,0.103l-0.244,0.204c-0.129,0.131-0.264,0.25-0.396,0.39c-0.128,0.145-0.272,0.277-0.388,0.433
		c-0.123,0.149-0.245,0.3-0.354,0.461c-0.116,0.157-0.22,0.322-0.322,0.489c-0.209,0.328-0.381,0.681-0.543,1.038l-0.451,1.007
		l-0.601-0.842l-0.041-0.058l0.025-0.048l0.034-0.037v-0.002c0.046,0.051,0.012,0.012,0.022,0.024l-0.007-0.007l-0.063,0.005
		l-0.116-0.101l-0.204-0.223c-0.065-0.084-0.133-0.137-0.196-0.194l-0.186-0.181c-0.119-0.126-0.281-0.229-0.42-0.346
		c-0.14-0.122-0.303-0.211-0.453-0.318c-0.153-0.107-0.323-0.179-0.487-0.271c-0.164-0.09-0.34-0.148-0.511-0.225
		c-0.175-0.071-0.357-0.114-0.538-0.174c-0.18-0.051-0.37-0.076-0.552-0.123c-0.187-0.032-0.378-0.047-0.567-0.072
		c-0.19-0.011-0.381-0.011-0.574-0.02l-0.579,0.041l-0.576,0.094l-0.568,0.149l-0.555,0.208l-0.542,0.256l-0.521,0.308l0.453-0.408
		l0.497-0.364c0.175-0.107,0.359-0.204,0.542-0.309c0.187-0.088,0.379-0.168,0.572-0.254c0.196-0.067,0.398-0.134,0.6-0.195
		l0.621-0.128c0.211-0.021,0.422-0.049,0.635-0.064c0.213-0.002,0.427-0.011,0.642-0.004c0.215,0.021,0.429,0.033,0.642,0.068
		c0.211,0.044,0.427,0.075,0.637,0.133c0.204,0.066,0.419,0.114,0.62,0.196c0.201,0.088,0.409,0.154,0.603,0.26
		c0.191,0.105,0.395,0.194,0.576,0.32c0.18,0.13,0.368,0.233,0.543,0.387l0.264,0.223c0.089,0.075,0.177,0.151,0.242,0.224
		l0.212,0.214l0.107,0.111l0.025,0.027l0.007,0.005l0.029,0.034l0.013,0.017l0.05,0.06l-1.051,0.165
		c0.152-0.427,0.322-0.851,0.537-1.256c0.104-0.203,0.214-0.404,0.342-0.595c0.118-0.197,0.252-0.381,0.388-0.566
		c0.129-0.191,0.286-0.357,0.431-0.537c0.149-0.177,0.325-0.349,0.49-0.519l0.216-0.235l0.099-0.128l0.058-0.054l0.016-0.013
		l0.054-0.008l0.042-0.018l0.554-0.415c0.177-0.148,0.386-0.25,0.582-0.375c0.196-0.12,0.394-0.24,0.606-0.333
		c0.209-0.098,0.417-0.205,0.63-0.292l0.654-0.236c0.218-0.08,0.448-0.119,0.671-0.179l0.337-0.08l0.344-0.051
		c0.458-0.084,0.921-0.099,1.382-0.116c0.463,0.022,0.928,0.032,1.384,0.119c0.228,0.033,0.456,0.068,0.681,0.132
		c0.223,0.06,0.451,0.104,0.667,0.182l0.652,0.238c0.216,0.084,0.42,0.192,0.631,0.291c0.209,0.092,0.409,0.212,0.604,0.334
		c0.194,0.124,0.4,0.233,0.577,0.382l0.552,0.417l0.524,0.488c0.189,0.165,0.308,0.327,0.449,0.487l0.206,0.239l0.055,0.062
		l0.025,0.029l0.025,0.03l0.003,0.005l0.005,0.009l0.014,0.018l0.1,0.14c0.276,0.365,0.516,0.757,0.73,1.161
		c0.097,0.205,0.199,0.408,0.291,0.617l0.244,0.637l-0.748-0.364l0.639-0.143c0.214-0.032,0.431-0.055,0.647-0.08
		c0.216-0.014,0.434-0.016,0.648-0.018c0.218,0.011,0.434,0.038,0.647,0.055c0.214,0.032,0.424,0.078,0.633,0.118
		c0.208,0.054,0.414,0.119,0.616,0.177c0.201,0.075,0.398,0.156,0.596,0.236c0.189,0.094,0.376,0.194,0.562,0.295l0.524,0.351
		c0.165,0.133,0.329,0.262,0.489,0.398c0.146,0.146,0.3,0.289,0.442,0.44c0.131,0.16,0.266,0.318,0.388,0.484
		c0.113,0.173,0.232,0.34,0.337,0.516c0.094,0.182,0.194,0.359,0.281,0.545c0.073,0.19,0.15,0.379,0.218,0.568L88.557,192.575z"/>
	<path fill="#434343" d="M363.027,200.566l-0.052-0.598c-0.032-0.195-0.073-0.386-0.105-0.577c-0.048-0.188-0.103-0.378-0.154-0.563
		c-0.063-0.184-0.139-0.36-0.206-0.541c-0.078-0.176-0.175-0.342-0.256-0.516c-0.095-0.165-0.198-0.325-0.294-0.489l-0.341-0.451
		l-0.38-0.415l-0.414-0.374l-0.444-0.338c-0.157-0.095-0.312-0.197-0.471-0.287c-0.166-0.078-0.327-0.165-0.493-0.24
		c-0.174-0.063-0.341-0.131-0.512-0.189c-0.178-0.044-0.349-0.1-0.524-0.143l-0.533-0.094l-0.537-0.041l-0.525-0.041l-0.037-0.571
		l-0.039-0.588c-0.024-0.194-0.058-0.387-0.085-0.579c-0.077-0.385-0.163-0.763-0.289-1.132l-0.042-0.14l0.013-0.023l0.016-0.018
		v-0.003c0.004,0.014-0.032-0.031-0.009,0.035l-0.024-0.033l-0.035-0.072l-0.123-0.293c-0.081-0.19-0.159-0.404-0.251-0.551
		l-0.259-0.49l-0.321-0.48c-0.099-0.167-0.232-0.307-0.351-0.458c-0.12-0.151-0.239-0.302-0.38-0.435
		c-0.137-0.134-0.264-0.28-0.408-0.408l-0.44-0.369c-0.146-0.125-0.313-0.222-0.468-0.336c-0.152-0.117-0.319-0.213-0.486-0.305
		c-0.328-0.202-0.687-0.346-1.035-0.502c-0.363-0.123-0.723-0.261-1.1-0.336l-0.279-0.067l-0.284-0.039
		c-0.19-0.022-0.38-0.066-0.57-0.07l-0.575-0.03c-0.192-0.002-0.384,0.017-0.575,0.021c-0.192,0-0.384,0.033-0.573,0.065
		s-0.384,0.039-0.568,0.097l-0.563,0.136l-0.035,0.009l-0.009,0.002l-0.005,0.003c-0.022,0.007,0.027-0.01,0.02-0.008l-0.02,0.008
		l-0.075,0.026l-0.149,0.049l-0.3,0.103c-0.169,0.074-0.337,0.138-0.513,0.218c-0.171,0.089-0.354,0.16-0.519,0.262
		c-0.169,0.094-0.338,0.189-0.498,0.3c-0.165,0.104-0.322,0.22-0.479,0.337c-0.315,0.23-0.604,0.496-0.885,0.77l-0.787,0.771
		l-0.252-1.001l-0.018-0.069l0.042-0.034l0.045-0.024h0.001c0.023,0.063,0.006,0.014,0.011,0.029l-0.004-0.009l-0.06-0.019
		l-0.07-0.135l-0.11-0.282c-0.028-0.103-0.073-0.176-0.11-0.252l-0.108-0.236c-0.064-0.16-0.177-0.317-0.265-0.476
		c-0.085-0.165-0.204-0.307-0.306-0.461c-0.103-0.155-0.235-0.284-0.354-0.43c-0.119-0.145-0.265-0.262-0.395-0.396
		c-0.136-0.129-0.291-0.236-0.437-0.357c-0.15-0.114-0.316-0.206-0.47-0.314c-0.163-0.1-0.334-0.183-0.502-0.276
		c-0.174-0.078-0.351-0.148-0.526-0.227l-0.555-0.174l-0.568-0.122l-0.584-0.068l-0.594-0.009l-0.598,0.04l-0.597,0.097l0.57-0.215
		l0.596-0.158c0.203-0.036,0.41-0.06,0.617-0.089c0.206-0.015,0.414-0.019,0.625-0.028c0.207,0.009,0.42,0.021,0.63,0.037
		l0.625,0.107c0.204,0.058,0.411,0.109,0.615,0.172c0.199,0.077,0.401,0.146,0.599,0.231c0.191,0.098,0.388,0.186,0.572,0.298
		c0.181,0.118,0.37,0.225,0.545,0.356c0.166,0.136,0.348,0.259,0.506,0.408c0.153,0.155,0.323,0.293,0.465,0.461
		c0.14,0.169,0.298,0.325,0.419,0.508c0.121,0.188,0.258,0.353,0.364,0.559l0.165,0.305c0.056,0.102,0.11,0.206,0.145,0.296
		l0.119,0.277l0.059,0.142l0.015,0.034l0.005,0.009l0.014,0.041l0.007,0.021l0.024,0.073l-1.039-0.229
		c0.297-0.343,0.61-0.676,0.959-0.974c0.17-0.152,0.347-0.298,0.534-0.43c0.182-0.141,0.374-0.262,0.568-0.386
		c0.19-0.13,0.397-0.229,0.597-0.343c0.204-0.108,0.43-0.206,0.646-0.303l0.287-0.142l0.14-0.082l0.073-0.03l0.018-0.005
		l0.055,0.012h0.046l0.666-0.186c0.22-0.073,0.452-0.092,0.679-0.136c0.227-0.041,0.454-0.08,0.687-0.089
		c0.231-0.014,0.463-0.039,0.693-0.041l0.693,0.017c0.233,0.006,0.461,0.054,0.691,0.079l0.343,0.049l0.339,0.078
		c0.457,0.089,0.893,0.244,1.329,0.397c0.422,0.188,0.852,0.367,1.244,0.614c0.202,0.114,0.4,0.229,0.587,0.371
		c0.186,0.137,0.382,0.261,0.555,0.414l0.521,0.459c0.169,0.157,0.32,0.332,0.48,0.501c0.162,0.163,0.304,0.346,0.442,0.533
		c0.135,0.186,0.286,0.362,0.397,0.564l0.36,0.59l0.311,0.646c0.116,0.223,0.167,0.415,0.241,0.616l0.104,0.3l0.027,0.076
		l0.013,0.036l0.014,0.037l0.001,0.007l0.002,0.011l0.007,0.021l0.043,0.167c0.122,0.44,0.202,0.894,0.255,1.347
		c0.016,0.228,0.037,0.454,0.046,0.683l-0.005,0.681l-0.563-0.611l0.646,0.099c0.213,0.048,0.423,0.107,0.633,0.162
		c0.206,0.066,0.409,0.145,0.61,0.222c0.198,0.088,0.39,0.192,0.582,0.285c0.188,0.109,0.366,0.229,0.547,0.341
		c0.174,0.128,0.342,0.263,0.51,0.39c0.158,0.144,0.313,0.291,0.468,0.438c0.142,0.157,0.279,0.318,0.415,0.48l0.361,0.518
		c0.105,0.184,0.21,0.364,0.309,0.55c0.083,0.189,0.174,0.378,0.251,0.572c0.064,0.195,0.131,0.394,0.186,0.591
		c0.041,0.202,0.092,0.401,0.126,0.604c0.021,0.202,0.05,0.405,0.063,0.609c-0.002,0.204,0.001,0.408-0.005,0.609L363.027,200.566z"
		/>
	<g>
		<path fill="#4D4D4D" d="M188.357,39.928c0,0.179,0.02,0.354,0.027,0.531v-1.062C188.377,39.575,188.357,39.749,188.357,39.928z"/>
		<path fill="#CECCCB" d="M200.186,28.1L200.186,28.1l0,23.656h0c6.533,0,11.827-5.296,11.827-11.828
			C212.013,33.396,206.719,28.1,200.186,28.1z"/>
		<path fill="#D7D6D6" d="M188.384,39.397v1.062c0.279,6.284,5.447,11.297,11.801,11.297V28.1
			C193.832,28.1,188.664,33.113,188.384,39.397z"/>
	</g>
</g>
</svg>
