<?xml version="1.0" encoding="utf-8"?>
<!-- Generator: Adobe Illustrator 16.0.0, SVG Export Plug-In . SVG Version: 6.00 Build 0)  -->
<!DOCTYPE svg PUBLIC "-//W3C//DTD SVG 1.1//EN" "http://www.w3.org/Graphics/SVG/1.1/DTD/svg11.dtd">
<svg version="1.1" id="Layer_1" xmlns="http://www.w3.org/2000/svg" xmlns:xlink="http://www.w3.org/1999/xlink" x="0px" y="0px"
	 width="360px" height="64.8px" viewBox="0 0 360 64.8" enable-background="new 0 0 360 64.8" xml:space="preserve">
<g>
	<path fill="#FFFFFF" d="M75.846,28.888c-6.837-5.677-8.925-9.104-8.925-13.701c0-4.506,1.899-6.218,5.222-6.218
		c3.324,0,5.223,1.712,5.223,6.218v6.377h9.873v-5.747c0-10.093-5.222-15.865-15.38-15.865c-10.161,0-15.382,5.772-15.382,15.865
		c0,7.213,2.754,12.441,11.49,19.743c6.835,5.68,8.923,9.104,8.923,13.705c0,4.505-2.088,6.128-5.41,6.128
		c-3.324,0-5.412-1.623-5.412-6.128v-4.51h-9.875v3.876c0,10.097,5.317,15.864,15.571,15.864c10.254,0,15.571-5.768,15.571-15.864
		C87.334,41.421,84.581,36.191,75.846,28.888z"/>
	<path fill="#FFFFFF" d="M111.848,35.158v14.107c0,4.505-2.09,6.217-5.411,6.217c-3.325,0-5.414-1.712-5.414-6.217V15.187
		c0-4.506,2.089-6.218,5.414-6.218c3.321,0,5.411,1.712,5.411,6.218v1.26c1.552-0.777,3.315-1.226,5.19-1.226
		c1.896,0,3.686,0.458,5.253,1.254v-0.658c0-10.093-5.601-15.865-15.854-15.865c-10.256,0-15.857,5.772-15.857,15.865v32.814
		c0,10.097,5.602,15.864,15.857,15.864c10.254,0,15.854-5.768,15.854-15.864V35.126c-1.567,0.8-3.356,1.254-5.253,1.254
		C115.164,36.38,113.4,35.935,111.848,35.158z"/>
	<path fill="#FFFFFF" d="M140.396-0.048c-10.252,0-15.572,5.772-15.572,15.865v2.431c2.071,1.921,3.359,4.595,3.359,7.554
		c0,2.957-1.288,5.63-3.359,7.555v15.274c0,10.097,5.32,15.864,15.572,15.864c10.256,0,15.573-5.768,15.573-15.864V28.621h-17.678
		v9.014h7.803v11.631c0,4.505-2.09,6.128-5.412,6.128c-3.325,0-5.412-1.623-5.412-6.128V15.187c0-4.506,2.087-6.218,5.412-6.218
		c3.322,0,5.412,1.712,5.412,6.218v6.761h9.875v-6.131C155.969,5.724,150.652-0.048,140.396-0.048z"/>
	<path fill="#FFFFFF" d="M260.224,49.283c0,4.543-2.133,6.178-5.525,6.178h-5.514L249.172,0.22h-10.661v64.418c0,0,5.431,0,15.896,0
		c10.471,0,15.898-5.815,15.898-15.991V0.22h-10.081V49.283z"/>
	<path fill="#FFFFFF" d="M292.476,28.9c-6.742-5.692-8.808-9.125-8.808-13.732c0-4.518,1.874-6.236,5.153-6.236
		s5.151,1.718,5.151,6.236v5.984h9.739v-5.351c0-10.121-5.15-15.902-15.17-15.902c-10.022,0-15.173,5.781-15.173,15.902
		c0,7.225,2.714,12.469,11.331,19.786c6.743,5.692,8.809,9.125,8.809,13.735c0,4.519-2.065,6.144-5.342,6.144
		c-3.282,0-5.338-1.625-5.338-6.144v-4.518h-9.74v3.885c0,10.12,5.243,15.901,15.358,15.901c10.114,0,15.36-5.781,15.36-15.901
		C303.808,41.461,301.094,36.221,292.476,28.9z"/>
	<g>
		<path fill="#FFFFFF" d="M218.192-0.1v9.789c6-1.335,7.589-5.789,9.61-9.789l0,0H218.192z"/>
		<polygon fill="#FFFFFF" points="218.192,37.406 218.192,37.406 206.62,-0.1 191.192,-0.1 191.192,64.9 201.192,64.9 
			201.192,20.125 201.192,20.125 216.952,64.9 228.192,64.9 228.192,16.9 218.192,16.9 		"/>
	</g>
	<path fill="#B32025" d="M125.521,22.56c-0.577-1.248-1.472-2.333-2.584-3.166c-1.479-1.104-3.338-1.768-5.366-1.768
		c-1.998,0-3.83,0.649-5.299,1.725c-2.053,1.506-3.384,3.863-3.384,6.519c0,2.658,1.331,5.013,3.384,6.521
		c1.469,1.076,3.301,1.724,5.299,1.724c2.028,0,3.888-0.664,5.366-1.77c1.112-0.833,2.007-1.915,2.584-3.163
		c0.471-1.014,0.734-2.133,0.734-3.313C126.255,24.693,125.992,23.574,125.521,22.56z M116.27,22.403
		c-1.41,1.223-2.047,2.797-2.468,4.505c-0.086,0.36-0.399,0.67-0.608,1.005c-0.249-0.329-0.686-0.648-0.707-0.993
		c-0.062-0.965,0.056-1.939,0.114-3.242c0.938-0.747,1.914-1.583,2.972-2.317c0.222-0.154,0.737,0.067,1.118,0.12
		C116.556,21.792,116.507,22.194,116.27,22.403z"/>
	<path fill="#FFFFFF" d="M159.042,64.638V-0.1h28.639v9.81h-18.578v17.654h13.573v9.81h-13.573v17.657h18.578v9.808H159.042z"/>
</g>
</svg>
